<svg id="Capa_1" enable-background="new 0 0 512 512" height="512" viewBox="0 0 512 512" width="512" xmlns="http://www.w3.org/2000/svg"><g><path d="m248.597 183.879c-8.327 9.17-18.144 16.604-29.176 22.092-11.9 5.92-24.673 9.324-37.964 10.118-5.282.316-9.404 4.691-9.404 9.982v49.961c-.169 32.582 15.783 65.027 41.59 84.642l36.265 27.857c1.796 1.38 3.944 2.07 6.092 2.07s4.295-.69 6.092-2.07l36.223-27.826c25.849-19.646 41.801-52.09 41.631-84.621v-50.013c0-5.291-4.122-9.667-9.404-9.982-13.29-.794-26.063-4.198-37.963-10.118-11.032-5.489-20.848-12.921-29.176-22.092-1.896-2.087-4.584-3.277-7.403-3.277s-5.508 1.19-7.403 3.277zm35.074 39.998c11.491 5.716 23.656 9.484 36.275 11.243v41.017c.138 26.424-12.788 52.727-33.774 68.677l-30.172 23.178-30.214-23.208c-20.945-15.919-33.871-42.222-33.733-68.698v-40.964c12.619-1.759 24.785-5.527 36.276-11.243 10.127-5.038 19.399-11.436 27.671-19.082 8.272 7.645 17.544 14.042 27.671 19.08z"/><path d="m238.951 277.467c-4.381-3.364-10.659-2.538-14.021 1.842-3.363 4.38-2.539 10.658 1.842 14.022l21.606 16.589c1.756 1.349 3.9 2.068 6.09 2.068.449 0 .899-.03 1.35-.091 2.644-.36 5.035-1.762 6.64-3.895l24.671-32.772c3.322-4.412 2.438-10.682-1.975-14.003-4.411-3.322-10.681-2.437-14.003 1.975l-18.6 24.707z"/><path d="m497.086 222.938c1.525.861 3.22 1.291 4.914 1.291 1.743 0 3.486-.456 5.043-1.365 3.07-1.793 4.957-5.081 4.957-8.635v-54.058c0-3.608-1.944-6.937-5.086-8.71l-246-138.79c-3.05-1.721-6.777-1.721-9.827 0l-246 138.79c-3.143 1.773-5.087 5.102-5.087 8.71v54.058c0 3.555 1.887 6.843 4.957 8.635 3.07 1.793 6.861 1.822 9.957.074l32.167-18.148v228.748h-37.081c-5.523 0-10 4.477-10 10v47.081c0 5.523 4.477 10 10 10h201c5.523 0 10-4.477 10-10s-4.477-10-10-10h-191v-27.081h472v27.081h-191c-5.523 0-10 4.477-10 10s4.477 10 10 10h201c5.523 0 10-4.477 10-10v-47.081c0-5.523-4.477-10-10-10h-37.082v-228.749zm-477.086-56.927 236-133.148 236 133.147v31.094l-231.086-130.375c-1.525-.86-3.219-1.29-4.914-1.29-1.694 0-3.389.43-4.914 1.29l-231.086 130.376zm424.918 267.527h-377.837v-240.032l188.919-106.585 188.918 106.585z"/><circle cx="256" cy="490.618" r="10"/></g></svg>