<svg height='100px' width='100px'  fill="#000000" xmlns="http://www.w3.org/2000/svg" xmlns:xlink="http://www.w3.org/1999/xlink" version="1.1" x="0px" y="0px" viewBox="0 0 100 100" enable-background="new 0 0 100 100" xml:space="preserve"><g><g><path d="M91.25,71.25c-1.482,4.447-12.5,12.5-12.5,15s0,7.5,0,7.5H60c0,0,0-5,0-7.5c0-10,5-10,13.75-16.25    c1.597-1.141,3.131-3.566,4.868-6.037c1.825-2.468,3.712-5.014,5.18-5.123c0.186-0.018,0.723-0.052,1.568,0.794    c1.098,1.098-1.918,5.938-3.718,8.831c-1.048,1.683-2.04,3.273-2.766,4.727c-0.952,1.904-6.313,5.276-9.469,6.955l1.174,2.207    c0.907-0.482,8.914-4.81,10.531-8.045c0.674-1.349,1.635-2.891,2.651-4.523c3.017-4.843,5.867-9.418,3.364-11.919    c-0.562-0.562-1.139-0.966-1.738-1.22c0,0,3.354-6.847,3.354-11.646c0-5.2,6.25-7.5,6.25-3.55C95,51.329,93.75,63.75,91.25,71.25z    "></path></g><g><path d="M8.75,71.25c1.482,4.447,12.5,12.5,12.5,15s0,7.5,0,7.5H40c0,0,0-5,0-7.5c0-10-5-10-13.75-16.25    c-1.597-1.141-3.131-3.566-4.868-6.037c-1.825-2.468-3.712-5.014-5.18-5.123c-0.186-0.018-0.723-0.052-1.568,0.794    c-1.098,1.098,1.918,5.938,3.718,8.831c1.048,1.683,2.04,3.273,2.766,4.727c0.952,1.904,6.313,5.276,9.469,6.955l-1.174,2.207    c-0.907-0.482-8.914-4.81-10.531-8.045c-0.674-1.349-1.635-2.891-2.651-4.523c-3.017-4.843-5.867-9.418-3.364-11.919    c0.562-0.562,1.139-0.966,1.738-1.22c0,0-3.354-6.847-3.354-11.646c0-5.2-6.25-7.5-6.25-3.55C5,51.329,6.25,63.75,8.75,71.25z"></path></g><path d="M37.5,42.5h-3.818l1.527-3.5l6.041-13.846v-7.896h-0.012C41.108,11.157,36.132,6.25,30,6.25s-11.108,4.907-11.238,11.008   H18.75V55h20V42.5H37.5z"></path><path d="M78.508,25.121L61.25,16.25l-17.258,8.871l-2.742,6.284L37.5,40h3.75v15h12.5V40h15v15h12.5V40H85L78.508,25.121z M65,32.5   h-7.5V25H65V32.5z"></path></g></svg>