<svg height="512" viewBox="0 0 512 512" width="512" xmlns="http://www.w3.org/2000/svg"><g><path d="m476 104h-440a28.031 28.031 0 0 0 -28 28v168a28.031 28.031 0 0 0 28 28h440a28.031 28.031 0 0 0 28-28v-168a28.031 28.031 0 0 0 -28-28zm-60 208h-320v-32h320zm72-12a12.01 12.01 0 0 1 -12 12h-44v-40a8 8 0 0 0 -8-8h-336a8 8 0 0 0 -8 8v40h-44a12.01 12.01 0 0 1 -12-12v-168a12.01 12.01 0 0 1 12-12h440a12.01 12.01 0 0 1 12 12z"/><path d="m256 344a8 8 0 0 0 -8 8v64a8 8 0 0 0 16 0v-64a8 8 0 0 0 -8-8z"/><path d="m208 344a8 8 0 0 0 -8 8v64a8 8 0 0 0 16 0v-64a8 8 0 0 0 -8-8z"/><path d="m160 344a8 8 0 0 0 -8 8v44a12.013 12.013 0 0 1 -12 12h-28a8 8 0 0 0 0 16h28a28.032 28.032 0 0 0 28-28v-44a8 8 0 0 0 -8-8z"/><path d="m88 408h-8a8 8 0 0 0 0 16h8a8 8 0 0 0 0-16z"/><path d="m304 344a8 8 0 0 0 -8 8v64a8 8 0 0 0 16 0v-64a8 8 0 0 0 -8-8z"/><path d="m400 408h-28a12.013 12.013 0 0 1 -12-12v-44a8 8 0 0 0 -16 0v44a28.032 28.032 0 0 0 28 28h28a8 8 0 0 0 0-16z"/><path d="m432 408h-8a8 8 0 0 0 0 16h8a8 8 0 0 0 0-16z"/><path d="m120 136h-72a8 8 0 0 0 -8 8v32a8 8 0 0 0 8 8h72a8 8 0 0 0 8-8v-32a8 8 0 0 0 -8-8zm-8 32h-56v-16h56z"/><path d="m464 136h-32a8 8 0 0 0 -8 8v32a8 8 0 0 0 8 8h32a8 8 0 0 0 8-8v-32a8 8 0 0 0 -8-8zm-8 32h-16v-16h16z"/></g></svg>