<svg height="512" viewBox="0 0 512 512" width="512" xmlns="http://www.w3.org/2000/svg"><g><path d="m496 464h-48v-320h24a8 8 0 0 0 8-8v-24a8 8 0 0 0 -8-8h-11.06l-45.78-91.58a8.011 8.011 0 0 0 -7.16-4.42h-304a8.011 8.011 0 0 0 -7.16 4.42l-45.78 91.58h-11.06a8 8 0 0 0 -8 8v24a8 8 0 0 0 8 8h24v320h-48a8 8 0 0 0 -8 8v24a8 8 0 0 0 8 8h480a8 8 0 0 0 8-8v-24a8 8 0 0 0 -8-8zm-387.06-440h294.12l40 80h-147.06v-32a40 40 0 0 0 -80 0v32h-147.06zm171.06 48v32h-48v-32a24 24 0 0 1 48 0zm-232 56v-8h416v8zm280 312h-24v-64a48 48 0 0 0 -96 0v64h-24a8 8 0 0 0 -8 8v16h-96v-320h352v320h-96v-16a8 8 0 0 0 -8-8zm-8 16v8h-128v-8zm-96-16v-64a32 32 0 0 1 64 0v64zm264 48h-464v-8h464z"/><path d="m184 416a8 8 0 0 0 8-8v-64a8 8 0 0 0 -8-8h-80a8 8 0 0 0 -8 8v64a8 8 0 0 0 8 8zm-72-64h64v48h-64z"/><path d="m328 416h80a8 8 0 0 0 8-8v-64a8 8 0 0 0 -8-8h-80a8 8 0 0 0 -8 8v64a8 8 0 0 0 8 8zm8-64h64v48h-64z"/><path d="m104 320h80a8 8 0 0 0 8-8v-64a8 8 0 0 0 -8-8h-80a8 8 0 0 0 -8 8v64a8 8 0 0 0 8 8zm8-64h64v48h-64z"/><path d="m216 320h80a8 8 0 0 0 8-8v-64a8 8 0 0 0 -8-8h-80a8 8 0 0 0 -8 8v64a8 8 0 0 0 8 8zm8-64h64v48h-64z"/><path d="m328 320h80a8 8 0 0 0 8-8v-64a8 8 0 0 0 -8-8h-80a8 8 0 0 0 -8 8v64a8 8 0 0 0 8 8zm8-64h64v48h-64z"/><path d="m104 232h80a8 8 0 0 0 8-8v-64a8 8 0 0 0 -8-8h-80a8 8 0 0 0 -8 8v64a8 8 0 0 0 8 8zm8-64h64v48h-64z"/><path d="m216 232h80a8 8 0 0 0 8-8v-64a8 8 0 0 0 -8-8h-80a8 8 0 0 0 -8 8v64a8 8 0 0 0 8 8zm8-64h64v48h-64z"/><path d="m328 232h80a8 8 0 0 0 8-8v-64a8 8 0 0 0 -8-8h-80a8 8 0 0 0 -8 8v64a8 8 0 0 0 8 8zm8-64h64v48h-64z"/></g></svg>