<?xml version="1.0" encoding="UTF-8"?>
<svg xmlns="http://www.w3.org/2000/svg" width="512" height="512" viewBox="0 0 512 512"><g><path d="M496,184a8,8,0,0,0,8-8V152a8,8,0,0,0-8-8H485.66L439.54,13.34A7.988,7.988,0,0,0,432,8H80a7.988,7.988,0,0,0-7.54,5.34L26.34,144H16a8,8,0,0,0-8,8v24a8,8,0,0,0,8,8H48V464H16a8,8,0,0,0-8,8v24a8,8,0,0,0,8,8H496a8,8,0,0,0,8-8V472a8,8,0,0,0-8-8H464V184ZM85.66,24H426.34l42.35,120H43.31ZM488,480v8H24v-8ZM320,440h-8V319a8,8,0,0,0-8-8H208a8,8,0,0,0-8,8V440h-8a8,8,0,0,0-8,8v16H64V184H448V464H328V448A8,8,0,0,0,320,440Zm-8,16v8H200v-8Zm-96-16V327h32.07a8.258,8.258,0,0,0-.07,1V440Zm47.93-113H296V440H264V328A8.258,8.258,0,0,0,263.93,327ZM24,168v-8H488v8Z"/><path d="M336,408h96a8,8,0,0,0,8-8V320a8,8,0,0,0-8-8H336a8,8,0,0,0-8,8v80A8,8,0,0,0,336,408Zm8-80h80v64H344Z"/><path d="M80,408h96a8,8,0,0,0,8-8V320a8,8,0,0,0-8-8H80a8,8,0,0,0-8,8v80A8,8,0,0,0,80,408Zm8-80h80v64H88Z"/><path d="M80,296h96a8,8,0,0,0,8-8V208a8,8,0,0,0-8-8H80a8,8,0,0,0-8,8v80A8,8,0,0,0,80,296Zm8-80h80v64H88Z"/><path d="M208,296h96a8,8,0,0,0,8-8V208a8,8,0,0,0-8-8H208a8,8,0,0,0-8,8v80A8,8,0,0,0,208,296Zm8-80h80v64H216Z"/><path d="M336,296h96a8,8,0,0,0,8-8V208a8,8,0,0,0-8-8H336a8,8,0,0,0-8,8v80A8,8,0,0,0,336,296Zm8-80h80v64H344Z"/></g></svg>
