<svg height="512" viewBox="0 0 512 512" width="512" xmlns="http://www.w3.org/2000/svg"><g><path d="m372 8h-232a28.031 28.031 0 0 0 -28 28v440a28.031 28.031 0 0 0 28 28h232a28.031 28.031 0 0 0 28-28v-440a28.031 28.031 0 0 0 -28-28zm-78.25 16-4 16h-67.5l-4-16zm90.25 452a12.01 12.01 0 0 1 -12 12h-232a12.01 12.01 0 0 1 -12-12v-440a12.01 12.01 0 0 1 12-12h61.75l6.49 25.94a8 8 0 0 0 7.76 6.06h80a8 8 0 0 0 7.76-6.06l6.49-25.94h61.75a12.01 12.01 0 0 1 12 12z"/><path d="m288 464h-64a8 8 0 0 0 0 16h64a8 8 0 0 0 0-16z"/><path d="m288 304a8 8 0 0 0 0-16h-64a8 8 0 0 0 0 16z"/><path d="m328 312h-144a8 8 0 0 0 -8 8v32a8 8 0 0 0 8 8h144a8 8 0 0 0 8-8v-32a8 8 0 0 0 -8-8zm-8 32h-128v-16h128z"/><path d="m280 384a8 8 0 0 0 0-16h-48a8 8 0 0 0 0 16z"/><path d="m320 392h-128a8 8 0 0 0 0 16h128a8 8 0 0 0 0-16z"/><path d="m304 416h-96a8 8 0 0 0 0 16h96a8 8 0 0 0 0-16z"/><path d="m324 88h-136a20.02 20.02 0 0 0 -20 20v136a20.02 20.02 0 0 0 20 20h136a20.02 20.02 0 0 0 20-20v-136a20.02 20.02 0 0 0 -20-20zm4 156a4 4 0 0 1 -4 4h-136a4 4 0 0 1 -4-4v-136a4 4 0 0 1 4-4h136a4 4 0 0 1 4 4z"/><path d="m308.53 153.41-48-33a7.982 7.982 0 0 0 -9.06 0l-48 33a8 8 0 0 0 -3.47 6.59v72a8 8 0 0 0 8 8h96a8 8 0 0 0 8-8v-72a8 8 0 0 0 -3.47-6.59zm-44.53 70.59h-16v-24h16zm32 0h-16v-32a8 8 0 0 0 -8-8h-32a8 8 0 0 0 -8 8v32h-16v-59.79l40-27.5 40 27.5z"/></g></svg>