<?xml version="1.0" encoding="UTF-8"?>
<svg xmlns="http://www.w3.org/2000/svg" width="512" height="512" viewBox="0 0 512 512"><g><path d="M441.33,400.03,320,362.12V339.86A112.034,112.034,0,0,0,367.71,256H372a28.031,28.031,0,0,0,28-28V188a28.031,28.031,0,0,0-28-28h-4V120a112,112,0,0,0-224,0v40h-4a28.031,28.031,0,0,0-28,28v40a28.031,28.031,0,0,0,28,28h4.29A112.034,112.034,0,0,0,192,339.86v22.26L70.67,400.03A64.07,64.07,0,0,0,8,464v32a8,8,0,0,0,8,8H496a8,8,0,0,0,8-8V464A64.07,64.07,0,0,0,441.33,400.03ZM368,176h4a12.01,12.01,0,0,1,12,12v40a12.01,12.01,0,0,1-12,12h-4ZM144,240h-4a12.01,12.01,0,0,1-12-12V188a12.01,12.01,0,0,1,12-12h4ZM64,488H24V464a48.08,48.08,0,0,1,40-47.33ZM335.42,383.7l-18.76,43.79-22.34-16.75,1.25-7.5,19.44-25.92ZM284,392H228l-20-26.67V349.18a111.88,111.88,0,0,0,96,0v16.15ZM160,120a96,96,0,0,1,192,0v30.6c-7.43-2.61-14.52-8.88-21.17-18.77a106.316,106.316,0,0,1-11.24-22.36A8,8,0,0,0,305.75,107c-22.63,28.3-106.1,40.95-145.75,44.37Zm0,128V167.4a608.106,608.106,0,0,0,61.53-8.55c41.14-8,70.52-19.03,87.64-32.86,6.75,14.1,20.76,36.65,42.83,41.19V248a96,96,0,0,1-192,0Zm36.99,129.32,19.44,25.92,1.25,7.5-22.34,16.75L176.58,383.7ZM218.23,488H80V413.88l81.22-25.38,23.43,54.65a7.985,7.985,0,0,0,5.28,4.58A8.171,8.171,0,0,0,192,448a8,8,0,0,0,4.8-1.6l23.84-17.88,3.47,20.8a8.01,8.01,0,0,0,4.98,6.13Zm16.87,0,10.67-32h19.58l11.33,32Zm38.12-48H238.78l-5.34-32h45.12ZM432,488H293.65l-11.44-32.31a8.016,8.016,0,0,0,5.68-6.37l3.47-20.8L315.2,446.4A8,8,0,0,0,320,448a8.171,8.171,0,0,0,2.07-.27,7.985,7.985,0,0,0,5.28-4.58l23.43-54.65L432,413.88Zm56,0H448V416.67A48.08,48.08,0,0,1,488,464Z"/><path d="M288,288a8,8,0,0,0-8-8H232a8,8,0,0,0,0,16h48A8,8,0,0,0,288,288Z"/><circle cx="208" cy="200" r="16"/><circle cx="304" cy="200" r="16"/></g></svg>
