<?xml version="1.0" encoding="UTF-8"?>
<svg xmlns="http://www.w3.org/2000/svg" width="512" height="512" viewBox="0 0 512 512"><g><path d="M288,288a8,8,0,0,0-8-8H232a8,8,0,0,0,0,16h48A8,8,0,0,0,288,288Z"/><circle cx="208" cy="200" r="16"/><circle cx="304" cy="200" r="16"/><path d="M476,344H372a28.023,28.023,0,0,0-27.89,25.65L320,362.12V339.86A112.034,112.034,0,0,0,367.71,256H372a28.031,28.031,0,0,0,28-28V188a28.031,28.031,0,0,0-28-28h4a8,8,0,0,0,8-8V128a8,8,0,0,0-8-8h-8V104a88.1,88.1,0,0,0-88-88,8,8,0,0,0-8-8H240a8,8,0,0,0-8,8,88.1,88.1,0,0,0-88,88v16h-8a8,8,0,0,0-8,8v24a8,8,0,0,0,8,8h4a28.031,28.031,0,0,0-28,28v40a28.031,28.031,0,0,0,28,28h4.29A112.034,112.034,0,0,0,192,339.86v22.26L70.67,400.03A64.07,64.07,0,0,0,8,464v32a8,8,0,0,0,8,8H476a28.031,28.031,0,0,0,28-28V372A28.031,28.031,0,0,0,476,344ZM64,488H24V464a48.08,48.08,0,0,1,40-47.33ZM372,176a12.01,12.01,0,0,1,12,12v40a12.01,12.01,0,0,1-12,12h-4V176ZM248,24h16V64H248Zm-88,80a72.083,72.083,0,0,1,72-72V72a8,8,0,0,0,8,8h32a8,8,0,0,0,8-8V32a72.083,72.083,0,0,1,72,72v16H160ZM144,240h-4a12.01,12.01,0,0,1-12-12V188a12.01,12.01,0,0,1,12-12h4Zm0-96v-8H368v8Zm16,104V160H352v88a96,96,0,0,1-192,0ZM304,349.18v16.15L284,392H228l-20-26.67V349.18a111.88,111.88,0,0,0,96,0ZM248,488H80V413.88l116.99-36.56L217.6,404.8A8.009,8.009,0,0,0,224,408h24Zm16,0V408h24a8.009,8.009,0,0,0,6.4-3.2l20.61-27.48L344,386.38V476a27.75,27.75,0,0,0,2.71,12Zm224-12a12.01,12.01,0,0,1-12,12H372a12.01,12.01,0,0,1-12-12V372a12.01,12.01,0,0,1,12-12H476a12.01,12.01,0,0,1,12,12Z"/><path d="M476.53,402.41l-48-33a7.982,7.982,0,0,0-9.06,0l-48,33A8,8,0,0,0,368,409v63a8,8,0,0,0,8,8h96a8,8,0,0,0,8-8V409A8,8,0,0,0,476.53,402.41ZM432,464H416V440h16Zm32,0H448V432a8,8,0,0,0-8-8H408a8,8,0,0,0-8,8v32H384V413.21l40-27.5,40,27.5Z"/></g></svg>
