<?xml version="1.0" encoding="UTF-8"?>
<svg xmlns="http://www.w3.org/2000/svg" width="512" height="512" viewBox="0 0 512 512"><g><path d="M417.23,416.03,312,385.97V384H416a8,8,0,0,0,8-8V168C424,75.36,348.64,0,256,0S88,75.36,88,168V376a8,8,0,0,0,8,8H200v1.97L94.77,416.03A64.063,64.063,0,0,0,32,480v16a8,8,0,0,0,8,8H472a8,8,0,0,0,8-8V480A64.063,64.063,0,0,0,417.23,416.03ZM88,488H48v-8a48.08,48.08,0,0,1,40-47.33Zm231.43-83.27-6.26,56.31-43.75-15.72c9.05-10.93,24.87-29.91,37.27-44.23ZM256,436.44c-9.2-11.11-26.81-32.26-40-47.44V360.37a104.361,104.361,0,0,0,80-.06V389C282.81,404.18,265.2,425.33,256,436.44Zm0-84.13a88.018,88.018,0,0,1-88-88V180.47A416.668,416.668,0,0,0,229,185c46.59,0,85.19-8.04,115-23.92V264.31A88.1,88.1,0,0,1,256,352.31ZM104,368V168c0-83.81,68.19-152,152-152S408,84.19,408,168V368H312V351.91A104.085,104.085,0,0,0,359.72,272H364a28.031,28.031,0,0,0,28-28V204a28.031,28.031,0,0,0-28-28h-4V147a8.009,8.009,0,0,0-12.44-6.66c-35.45,23.64-83.87,28.63-118.25,28.66H229a387.715,387.715,0,0,1-67.43-5.84A7.992,7.992,0,0,0,152,171v5h-4a28.031,28.031,0,0,0-28,28v40a28.031,28.031,0,0,0,28,28h4.28a103.2,103.2,0,0,0,30.18,65.85A104.753,104.753,0,0,0,200,351.98V368ZM360,256V192h4a12.01,12.01,0,0,1,12,12v40a12.01,12.01,0,0,1-12,12ZM152,192v64h-4a12.01,12.01,0,0,1-12-12V204a12.01,12.01,0,0,1,12-12Zm53.31,209.09c12.4,14.32,28.22,33.3,37.27,44.23l-43.75,15.72-6.26-56.31ZM408,488H104V430.03l72.97-20.84,7.08,63.69a8,8,0,0,0,10.66,6.65L256,457.5l61.29,22.03A8.177,8.177,0,0,0,320,480a8,8,0,0,0,7.95-7.12l7.08-63.69L408,430.03Zm56,0H424V432.67A48.08,48.08,0,0,1,464,480Z"/><path d="M240,304h32a8,8,0,0,0,0-16H240a8,8,0,0,0,0,16Z"/><circle cx="208" cy="216" r="16"/><circle cx="304" cy="216" r="16"/></g></svg>
