<svg height="512" viewBox="0 0 512 512" width="512" xmlns="http://www.w3.org/2000/svg"><g><path d="m256 328c88.224 0 160-71.775 160-160s-71.776-160-160-160-160 71.775-160 160 71.776 160 160 160zm0-304c79.4 0 144 64.6 144 144s-64.6 144-144 144-144-64.6-144-144 64.6-144 144-144z"/><path d="m256 304c74.991 0 136-61.01 136-136s-61.009-136-136-136-136 61.01-136 136 61.009 136 136 136zm0-256a119.3 119.3 0 0 1 65.309 19.377l-38.966 38.966a8 8 0 0 0 11.314 11.314l40-40a8.1 8.1 0 0 0 .544-.6 120.9 120.9 0 0 1 8.977 8.572 8.005 8.005 0 0 0 -.835.716l-76 76a8 8 0 0 0 11.314 11.314l75.711-75.711a120.167 120.167 0 0 1 6.815 10.557l-45.84 45.84a8 8 0 0 0 11.314 11.314l41.892-41.892a119.952 119.952 0 0 1 -181.6 141.6l31.711-31.711a8 8 0 0 0 -11.314-11.314l-32.778 32.778a121.49 121.49 0 0 1 -8.51-8.92 8.075 8.075 0 0 0 .6-.544l72-72a8 8 0 0 0 -11.314-11.314l-70.966 70.966a119.942 119.942 0 0 1 100.622-185.308z"/><path d="m416 344h-320a8 8 0 0 0 -8 8v144a8 8 0 0 0 8 8h24a8 8 0 0 0 7.89-6.68l6.89-41.32h242.44l6.89 41.32a8 8 0 0 0 7.89 6.68h24a8 8 0 0 0 8-8v-144a8 8 0 0 0 -8-8zm-302.78 144h-9.22v-32h14.56zm294.78 0h-9.22l-5.34-32h14.56zm0-48h-304v-80h304z"/><path d="m400 424v-48a8 8 0 0 0 -8-8h-272a8 8 0 0 0 -8 8v48a8 8 0 0 0 8 8h272a8 8 0 0 0 8-8zm-16-8h-256v-32h256z"/><path d="m232 408h48a8 8 0 0 0 0-16h-48a8 8 0 0 0 0 16z"/></g></svg>