<svg height="512" viewBox="0 0 512 512" width="512" xmlns="http://www.w3.org/2000/svg"><path d="m496 336h-24v-44a28.031 28.031 0 0 0 -28-28h-4v-140a28.031 28.031 0 0 0 -28-28h-312a28.031 28.031 0 0 0 -28 28v140h-4a28.031 28.031 0 0 0 -28 28v44h-24a8 8 0 0 0 -8 8v64a8 8 0 0 0 8 8h24a8 8 0 0 0 7.76-6.06l6.49-25.94h403.5l6.49 25.94a8 8 0 0 0 7.76 6.06h24a8 8 0 0 0 8-8v-64a8 8 0 0 0 -8-8zm-408-212a12.01 12.01 0 0 1 12-12h312a12.01 12.01 0 0 1 12 12v140h-24v-28a20.02 20.02 0 0 0 -20-20h-88a20.02 20.02 0 0 0 -20 20v28h-32v-28a20.02 20.02 0 0 0 -20-20h-88a20.02 20.02 0 0 0 -20 20v28h-24zm296 112v28h-96v-28a4 4 0 0 1 4-4h88a4 4 0 0 1 4 4zm-160 0v28h-96v-28a4 4 0 0 1 4-4h88a4 4 0 0 1 4 4zm-168 56a12.01 12.01 0 0 1 12-12h376a12.01 12.01 0 0 1 12 12v44h-400zm-22.25 108h-9.75v-16h13.75zm454.25 0h-9.75l-4-16h13.75zm0-32h-464v-16h464z"/></svg>