<?xml version="1.0" encoding="UTF-8"?>
<svg xmlns="http://www.w3.org/2000/svg" width="512" height="512" viewBox="0 0 512 512"><g><path d="M496,72H424V56h48a8,8,0,0,0,8-8V16a8,8,0,0,0-8-8H360a8,8,0,0,0-8,8V48a8,8,0,0,0,8,8h48V72H264V56h48a8,8,0,0,0,8-8V16a8,8,0,0,0-8-8H200a8,8,0,0,0-8,8V48a8,8,0,0,0,8,8h48V72H104V56h48a8,8,0,0,0,8-8V16a8,8,0,0,0-8-8H40a8,8,0,0,0-8,8V48a8,8,0,0,0,8,8H88V72H16a8,8,0,0,0-8,8V376a8,8,0,0,0,8,8H184v24a8,8,0,0,0,8,8h24v80a8,8,0,0,0,8,8h64a8,8,0,0,0,8-8V416h24a8,8,0,0,0,8-8V384H496a8,8,0,0,0,8-8V80A8,8,0,0,0,496,72ZM368,40V24h96V40ZM208,40V24h96V40ZM48,40V24h96V40ZM280,488H232V416h48Zm32-88H200V384H312Zm176-32H24V88H488Z"/><path d="M156.53,201.41l-48-33a7.982,7.982,0,0,0-9.06,0l-48,33A8,8,0,0,0,48,208v72a8,8,0,0,0,8,8h96a8,8,0,0,0,8-8V208A8,8,0,0,0,156.53,201.41ZM112,272H96V248h16Zm32,0H128V240a8,8,0,0,0-8-8H88a8,8,0,0,0-8,8v32H64V212.21l40-27.5,40,27.5Z"/><path d="M200,208H456a8,8,0,0,0,8-8V152a8,8,0,0,0-8-8H200a8,8,0,0,0-8,8v48A8,8,0,0,0,200,208Zm8-48H448v32H208Z"/><path d="M200,241H456a8,8,0,0,0,0-16H200a8,8,0,0,0,0,16Z"/><path d="M200,265H456a8,8,0,0,0,0-16H200a8,8,0,0,0,0,16Z"/><path d="M200,289H456a8,8,0,0,0,0-16H200a8,8,0,0,0,0,16Z"/><path d="M200,313H327a8,8,0,0,0,0-16H200a8,8,0,0,0,0,16Z"/><path d="M360,297h-8a8,8,0,0,0,0,16h8a8,8,0,0,0,0-16Z"/></g></svg>
