<?xml version="1.0" encoding="UTF-8"?>
<svg xmlns="http://www.w3.org/2000/svg" width="512" height="512" viewBox="0 0 512 512"><g><path d="M432,8H192a8,8,0,0,0-8,8V72H72a8,8,0,0,0-8,8V496a8,8,0,0,0,8,8H312a8,8,0,0,0,8-8V440H432a8,8,0,0,0,8-8V16A8,8,0,0,0,432,8ZM200,51.1,262.7,72H200ZM304,488H80V462.56l224-44.8Zm0-86.56L80,446.24V174.56l224-44.8Zm0-288L80,158.24V88H304ZM424,424H320V80a7.994,7.994,0,0,0-5.41-7.56l-.06-.03-.13-.04a.037.037,0,0,0-.03-.01L200,34.23V24H424Z"/><path d="M244.53,217.41l-48-33a7.982,7.982,0,0,0-9.06,0l-48,33A8,8,0,0,0,136,224v72a8,8,0,0,0,8,8h96a8,8,0,0,0,8-8V224A8,8,0,0,0,244.53,217.41ZM200,288H184V264h16Zm32,0H216V256a8,8,0,0,0-8-8H176a8,8,0,0,0-8,8v32H152V228.21l40-27.5,40,27.5Z"/><path d="M160,320a8,8,0,0,0,0,16h64a8,8,0,0,0,0-16Z"/><path d="M224,368H160a8,8,0,0,0,0,16h64a8,8,0,0,0,0-16Z"/><path d="M248,344H136a8,8,0,0,0,0,16H248a8,8,0,0,0,0-16Z"/></g></svg>
