<svg height="512" viewBox="0 0 512 512" width="512" xmlns="http://www.w3.org/2000/svg"><g><path d="m496 464h-8v-200a8 8 0 0 0 -8-8h-24v-24h24a8 8 0 0 0 8-8v-24a8 8 0 0 0 -8-8h-216v-48h216a8 8 0 0 0 8-8v-80a8 8 0 0 0 -8-8h-160v-32a8 8 0 0 0 -8-8h-112a8 8 0 0 0 -8 8v32h-160a8 8 0 0 0 -8 8v408h-8a8 8 0 0 0 -8 8v24a8 8 0 0 0 8 8h480a8 8 0 0 0 8-8v-24a8 8 0 0 0 -8-8zm-24-256v8h-208v-8zm-32 24v24h-16v-24zm-32 0v24h-16v-24zm-32 0v24h-16v-24zm-32 0v24h-16v-24zm-32 0v24h-16v-24zm-32 0v24h-16v-24zm-72-208h96v24h-96zm-168 40h432v64h-216a8 8 0 0 0 -8 8v120h-208zm0 208h432v192h-264v-120a8 8 0 0 0 -8-8h-112a8 8 0 0 0 -8 8v120h-40zm152 80v112h-40v-112zm-56 0v112h-40v-112zm352 136h-464v-8h464z"/><path d="m248 416h176a8 8 0 0 0 8-8v-64a8 8 0 0 0 -8-8h-176a8 8 0 0 0 -8 8v64a8 8 0 0 0 8 8zm8-64h160v48h-160z"/><path d="m200 120h-112a8 8 0 0 0 -8 8v64a8 8 0 0 0 8 8h112a8 8 0 0 0 8-8v-64a8 8 0 0 0 -8-8zm-8 64h-96v-48h96z"/></g></svg>