<svg height="512" viewBox="0 0 512 512" width="512" xmlns="http://www.w3.org/2000/svg"><g><path d="m496 464h-16v-264a8 8 0 0 0 -8-8h-24v-40a8 8 0 0 0 -8-8h-48v-48a8 8 0 0 0 -16 0v48h-48a8 8 0 0 0 -8 8v40h-24a8 8 0 0 0 -8 8v72h-32v-224h8a8 8 0 0 0 8-8v-24a8 8 0 0 0 -8-8h-240a8 8 0 0 0 -8 8v24a8 8 0 0 0 8 8h8v416h-16a8 8 0 0 0 -8 8v24a8 8 0 0 0 8 8h480a8 8 0 0 0 8-8v-24a8 8 0 0 0 -8-8zm-160-304h96v32h-96zm-32 48h160v256h-104v-184a8 8 0 0 0 -8-8h-48zm40 80v176h-40v-48a8 8 0 0 0 -8-8h-80a8 8 0 0 0 -8 8v48h-40v-176zm-56 136v40h-64v-40zm-128-152a8 8 0 0 0 -8 8v184h-104v-416h192v224zm-128-248h224v8h-224zm456 464h-464v-8h464z"/><path d="m272 352h-32a8 8 0 0 0 -8 8v32a8 8 0 0 0 8 8h32a8 8 0 0 0 8-8v-32a8 8 0 0 0 -8-8zm-8 32h-16v-16h16z"/><path d="m216 352h-32a8 8 0 0 0 -8 8v32a8 8 0 0 0 8 8h32a8 8 0 0 0 8-8v-32a8 8 0 0 0 -8-8zm-8 32h-16v-16h16z"/><path d="m336 392v-32a8 8 0 0 0 -8-8h-32a8 8 0 0 0 -8 8v32a8 8 0 0 0 8 8h32a8 8 0 0 0 8-8zm-16-8h-16v-16h16z"/><path d="m272 296h-32a8 8 0 0 0 -8 8v32a8 8 0 0 0 8 8h32a8 8 0 0 0 8-8v-32a8 8 0 0 0 -8-8zm-8 32h-16v-16h16z"/><path d="m216 296h-32a8 8 0 0 0 -8 8v32a8 8 0 0 0 8 8h32a8 8 0 0 0 8-8v-32a8 8 0 0 0 -8-8zm-8 32h-16v-16h16z"/><path d="m296 344h32a8 8 0 0 0 8-8v-32a8 8 0 0 0 -8-8h-32a8 8 0 0 0 -8 8v32a8 8 0 0 0 8 8zm8-32h16v16h-16z"/><path d="m72 144h144a8 8 0 0 0 8-8v-32a8 8 0 0 0 -8-8h-144a8 8 0 0 0 -8 8v32a8 8 0 0 0 8 8zm8-32h128v16h-128z"/><path d="m72 200h144a8 8 0 0 0 8-8v-32a8 8 0 0 0 -8-8h-144a8 8 0 0 0 -8 8v32a8 8 0 0 0 8 8zm8-32h128v16h-128z"/><path d="m72 256h144a8 8 0 0 0 8-8v-32a8 8 0 0 0 -8-8h-144a8 8 0 0 0 -8 8v32a8 8 0 0 0 8 8zm8-32h128v16h-128z"/><path d="m136 264h-64a8 8 0 0 0 -8 8v32a8 8 0 0 0 8 8h64a8 8 0 0 0 8-8v-32a8 8 0 0 0 -8-8zm-8 32h-48v-16h48z"/><path d="m136 320h-64a8 8 0 0 0 -8 8v32a8 8 0 0 0 8 8h64a8 8 0 0 0 8-8v-32a8 8 0 0 0 -8-8zm-8 32h-48v-16h48z"/><path d="m408 448h32a8 8 0 0 0 8-8v-208a8 8 0 0 0 -8-8h-32a8 8 0 0 0 -8 8v208a8 8 0 0 0 8 8zm8-208h16v192h-16z"/></g></svg>