<?xml version="1.0" encoding="UTF-8"?>
<svg xmlns="http://www.w3.org/2000/svg" width="512" height="512" viewBox="0 0 512 512"><g><path d="M496,464H448V408a8.113,8.113,0,0,0,1.94-.24l32-8a8,8,0,0,0-3.88-15.52L448,391.75V367.48A63.988,63.988,0,0,0,484.5,258,47.973,47.973,0,0,0,416,198.46V88a8,8,0,0,0-8-8H384V56a8,8,0,0,0-8-8H344V16a8,8,0,0,0-8-8H176a8,8,0,0,0-8,8V48H136a8,8,0,0,0-8,8V80H104a8,8,0,0,0-8,8V262.46A47.988,47.988,0,0,0,27.5,322,63.988,63.988,0,0,0,64,431.48V444.9l-13.47-4.49a8,8,0,0,0-5.06,15.18L64,461.77V464H16a8,8,0,0,0-8,8v24a8,8,0,0,0,8,8H496a8,8,0,0,0,8-8V472A8,8,0,0,0,496,464ZM412.28,256a32,32,0,1,1,55.44,0,8.008,8.008,0,0,0,1.98,10.28A48,48,0,0,1,448,351.32V304a8,8,0,0,0-16,0v47.32a48,48,0,0,1-21.7-85.04A8.008,8.008,0,0,0,412.28,256ZM432,367.48V464H416V363.31A63.439,63.439,0,0,0,432,367.48ZM184,24H328V48H184ZM144,64H368V80H144ZM112,96H400V213.51A47.927,47.927,0,0,0,395.5,258a63.948,63.948,0,0,0,4.5,95.91V464H320V360a8,8,0,0,0-8-8H200a8,8,0,0,0-8,8V464H112V417.91A63.948,63.948,0,0,0,116.5,322a47.927,47.927,0,0,0-4.5-44.49ZM304,368v96H264V368Zm-56,0v96H208V368ZM24,368a47.781,47.781,0,0,1,18.3-37.72A8.008,8.008,0,0,0,44.28,320a32,32,0,1,1,55.44,0,8.008,8.008,0,0,0,1.98,10.28A48,48,0,0,1,80,415.32V392a8,8,0,0,0-16,0v23.32A48.069,48.069,0,0,1,24,368Zm72,59.31V464H80V431.48A63.439,63.439,0,0,0,96,427.31ZM488,488H24v-8H488Z"/><path d="M152,224h80a8,8,0,0,0,8-8V192a8,8,0,0,0-8-8V120a8,8,0,0,0-8-8H160a8,8,0,0,0-8,8v64a8,8,0,0,0-8,8v24A8,8,0,0,0,152,224Zm72-16H160v-8h64Zm-56-80h48v56H168Z"/><path d="M280,224h80a8,8,0,0,0,8-8V192a8,8,0,0,0-8-8V120a8,8,0,0,0-8-8H288a8,8,0,0,0-8,8v64a8,8,0,0,0-8,8v24A8,8,0,0,0,280,224Zm72-16H288v-8h64Zm-56-80h48v56H296Z"/><path d="M152,344h80a8,8,0,0,0,8-8V312a8,8,0,0,0-8-8V240a8,8,0,0,0-8-8H160a8,8,0,0,0-8,8v64a8,8,0,0,0-8,8v24A8,8,0,0,0,152,344Zm72-16H160v-8h64Zm-56-80h48v56H168Z"/><path d="M280,344h80a8,8,0,0,0,8-8V312a8,8,0,0,0-8-8V240a8,8,0,0,0-8-8H288a8,8,0,0,0-8,8v64a8,8,0,0,0-8,8v24A8,8,0,0,0,280,344Zm72-16H288v-8h64Zm-56-80h48v56H296Z"/></g></svg>
