<?xml version="1.0" encoding="UTF-8"?>
<svg xmlns="http://www.w3.org/2000/svg" width="512" height="512" viewBox="0 0 512 512"><g><path d="M491.88,238.86A8,8,0,0,0,504,232V192a8,8,0,0,0-3.88-6.86L432,144.27V72a8,8,0,0,0-8-8H376a8,8,0,0,0-8,8v33.87L260.12,41.14a8.015,8.015,0,0,0-8.24,0l-31.2,18.72A119.967,119.967,0,0,0,17.16,181.97l-5.28,3.17A8,8,0,0,0,8,192v40a8,8,0,0,0,12.12,6.86l25.75-15.45a123.41,123.41,0,0,0,10.14,8.54c0,.08-.01.17-.01.25V448H16a8,8,0,0,0-8,8v32a8,8,0,0,0,8,8H496a8,8,0,0,0,8-8V456a8,8,0,0,0-8-8H456V217.33ZM384,80h32v54.67l-32-19.2ZM24,217.87V196.53l.31-.19a121.9,121.9,0,0,0,10.43,15.09ZM24,136A104,104,0,1,1,128,240,104.112,104.112,0,0,1,24,136Zm219.83-31.37L256,97.33l184,110.4V448H224V432a8,8,0,0,0-8-8h-8V288a8,8,0,0,0-8-8H104a8,8,0,0,0-8,8V424H88a8,8,0,0,0-8,8v16H72V242.1A119.988,119.988,0,0,0,243.83,104.63ZM208,440v8H96v-8Zm-96-16V296h80V424Zm376,40v16H24V464ZM260.12,81.14a8.015,8.015,0,0,0-8.24,0l-13.39,8.04a120.548,120.548,0,0,0-8.46-16.27L256,57.33l232,139.2v21.34Z"/><path d="M176,384a8,8,0,0,0,8-8V360a8,8,0,0,0-16,0v16A8,8,0,0,0,176,384Z"/><path d="M240,288v72h-8a8,8,0,0,0-8,8v24a8,8,0,0,0,8,8H424a8,8,0,0,0,8-8V368a8,8,0,0,0-8-8h-8V288a8,8,0,0,0-8-8H248A8,8,0,0,0,240,288Zm176,96H240v-8H416ZM256,296H400v64H256Z"/><path d="M75.884,158.86l40,24a8,8,0,0,0,9.773-1.2l72-72a8,8,0,0,0-11.314-11.314L118.76,165.927,84.116,145.14a8,8,0,1,0-8.232,13.72Z"/></g></svg>
