<?xml version="1.0" encoding="UTF-8"?>
<svg xmlns="http://www.w3.org/2000/svg" width="512" height="512" viewBox="0 0 512 512"><g><path d="M496,456H464V440a8,8,0,0,0-8-8H440V337.61l19.56,13.05A8.026,8.026,0,0,0,464,352a8.015,8.015,0,0,0,8-8V312a8.033,8.033,0,0,0-3.56-6.66L448,291.72V248a8,8,0,0,0-8-8H408a8,8,0,0,0-8,8v11.72l-51.56-34.38a8.013,8.013,0,0,0-8.88,0l-120,80A8.033,8.033,0,0,0,216,312v32a8.009,8.009,0,0,0,12.44,6.66L248,337.61V432H232a8,8,0,0,0-8,8v16H192V432a8,8,0,0,0-8-8H152V96H304v24a8,8,0,0,0,8,8h24v16a8,8,0,0,0,8,8,16,16,0,1,1-16,16,8,8,0,0,0-16,0,32,32,0,1,0,40-30.99V128h24a8,8,0,0,0,8-8V96h8a8,8,0,0,0,8-8V56a8,8,0,0,0-8-8H152a8,8,0,0,0-8-8h-8V16a8,8,0,0,0-8-8H80a8,8,0,0,0-8,8V40H64a8,8,0,0,0-8,8H32a8,8,0,0,0-8,8V88a8,8,0,0,0,8,8H56V424H48a8,8,0,0,0-8,8v24H16a8,8,0,0,0-8,8v32a8,8,0,0,0,8,8H496a8,8,0,0,0,8-8V464A8,8,0,0,0,496,456ZM368,112H320V96h48ZM152,64H384V80H152ZM416,256h16v25.05l-16-10.66ZM232,329.05V316.28l112-74.66,59.48,39.65c.04.02.07.05.11.07l31.93,21.29c.01,0,.01.01.02.01L456,316.28v12.77L348.44,257.34a8.026,8.026,0,0,0-8.88,0ZM320,360H280a8,8,0,0,0-8,8v64h-8V328a8.424,8.424,0,0,0-.07-1.01L344,273.62l80.07,53.37A8.424,8.424,0,0,0,424,328V432H328V368A8,8,0,0,0,320,360Zm-8,16v56H288V376Zm-72,72H448v8H240ZM88,24h32V40H88ZM72,56h64V424H72ZM40,80V64H56V80ZM56,440H176v16H56Zm432,48H24V472H488Z"/><path d="M336,368v32a8,8,0,0,0,8,8h64a8,8,0,0,0,8-8V368a8,8,0,0,0-8-8H344A8,8,0,0,0,336,368Zm16,8h48v16H352Z"/><path d="M344,344a24,24,0,1,0-24-24A24.028,24.028,0,0,0,344,344Zm0-32a8,8,0,1,1-8,8A8.009,8.009,0,0,1,344,312Z"/></g></svg>
