<?xml version="1.0" encoding="UTF-8"?>
<svg xmlns="http://www.w3.org/2000/svg" width="512" height="512" viewBox="0 0 512 512"><g><path d="M376,8H40a8,8,0,0,0-8,8V496a8,8,0,0,0,8,8H376a8,8,0,0,0,8-8V16A8,8,0,0,0,376,8Zm-8,480H48V24H368Z"/><path d="M172.53,73.41l-48-33a7.982,7.982,0,0,0-9.06,0l-48,33A8,8,0,0,0,64,80v72a8,8,0,0,0,8,8h96a8,8,0,0,0,8-8V80A8,8,0,0,0,172.53,73.41ZM128,144H112V120h16Zm32,0H144V112a8,8,0,0,0-8-8H104a8,8,0,0,0-8,8v32H80V84.21l40-27.5,40,27.5Z"/><path d="M208,88H344a8,8,0,0,0,0-16H208a8,8,0,0,0,0,16Z"/><path d="M208,112H344a8,8,0,0,0,0-16H208a8,8,0,0,0,0,16Z"/><path d="M208,136h72a8,8,0,0,0,0-16H208a8,8,0,0,0,0,16Z"/><path d="M72,200H344a8,8,0,0,0,0-16H72a8,8,0,0,0,0,16Z"/><path d="M72,224H344a8,8,0,0,0,0-16H72a8,8,0,0,0,0,16Z"/><path d="M72,248H344a8,8,0,0,0,0-16H72a8,8,0,0,0,0,16Z"/><path d="M72,272H344a8,8,0,0,0,0-16H72a8,8,0,0,0,0,16Z"/><path d="M72,296H208a8,8,0,0,0,0-16H72a8,8,0,0,0,0,16Z"/><path d="M232,280a8,8,0,0,0,0,16h8a8,8,0,0,0,0-16Z"/><path d="M72,328H344a8,8,0,0,0,0-16H72a8,8,0,0,0,0,16Z"/><path d="M72,352H344a8,8,0,0,0,0-16H72a8,8,0,0,0,0,16Z"/><path d="M72,376H208a8,8,0,0,0,0-16H72a8,8,0,0,0,0,16Z"/><path d="M240,376a8,8,0,0,0,0-16h-8a8,8,0,0,0,0,16Z"/><path d="M342.956,445.856l-42.932,9.893c-6.977,1.606-9.957.559-10.179.119-.349-.693.129-3.308.444-5.039.649-3.556,1.455-7.98.065-12.677-2.741-9.261-12.262-14.678-26.123-14.862a150.063,150.063,0,0,0-78.042,20.675,8,8,0,0,0,8.106,13.8,133.965,133.965,0,0,1,69.724-18.471c6.511.086,10.524,1.818,10.994,3.4.306,1.039-.1,3.285-.464,5.266-.74,4.06-1.754,9.619,1,15.1,1.971,3.92,6.759,9.545,17.978,9.544a45.083,45.083,0,0,0,10.086-1.262l42.932-9.892a8,8,0,0,0-3.592-15.592Z"/><path d="M472,56a8,8,0,0,0-8,8V96h-8V48a8,8,0,0,0-8-8V32a24,24,0,0,0-48,0v8a8,8,0,0,0-8,8V432c0,.14.01.28.02.42.01.11.01.22.02.32a6.487,6.487,0,0,0,.11.77.127.127,0,0,0,.01.06v.01c0,.02.01.04.01.06l7.99,39.93A7.99,7.99,0,0,0,408,480h8v16a8,8,0,0,0,16,0V480h8a7.99,7.99,0,0,0,7.84-6.43l7.99-39.93c0-.02.01-.04.01-.06v-.01a.127.127,0,0,0,.01-.06,6.487,6.487,0,0,0,.11-.77c.01-.1.01-.21.02-.32.01-.14.02-.28.02-.42V112h8v72a8,8,0,0,0,16,0V64A8,8,0,0,0,472,56ZM416,32a8,8,0,0,1,16,0v8H416Zm17.44,432H414.56l-4.8-24h28.48ZM440,424H408V136h32Zm0-304H408v-8h32Zm0-24H408V56h32Z"/></g></svg>
