<?xml version="1.0" encoding="UTF-8"?>
<svg xmlns="http://www.w3.org/2000/svg" width="512" height="512" viewBox="0 0 512 512"><g><path d="M96,400a24,24,0,1,0,24,24A24.027,24.027,0,0,0,96,400Zm0,32a8,8,0,1,1,8-8A8.009,8.009,0,0,1,96,432Z"/><path d="M424,400a24,24,0,1,0,24,24A24.027,24.027,0,0,0,424,400Zm0,32a8,8,0,1,1,8-8A8.009,8.009,0,0,1,424,432Z"/><path d="M120,344h24a8,8,0,0,0,0-16H120a8,8,0,0,0,0,16Z"/><path d="M476,96H196a28.031,28.031,0,0,0-28,28v84H80a8.033,8.033,0,0,0-6.66,3.56l-64,96A8.066,8.066,0,0,0,8,312v92a28.031,28.031,0,0,0,28,28H48.68a47.99,47.99,0,0,0,94.64,0H376.68a47.99,47.99,0,0,0,94.64,0H476a28.031,28.031,0,0,0,28-28V124A28.031,28.031,0,0,0,476,96ZM68.28,248H136v56H30.95ZM24,352H40a8,8,0,0,1,0,16H24ZM96,456a32,32,0,1,1,32-32A32.036,32.036,0,0,1,96,456Zm72-40H143.32a47.99,47.99,0,0,0-94.64,0H36a12.01,12.01,0,0,1-12-12V384H40a24,24,0,0,0,0-48H24V320H144a8,8,0,0,0,8-8V240a8,8,0,0,0-8-8H78.95l5.33-8H168Zm256,40a32,32,0,1,1,32-32A32.036,32.036,0,0,1,424,456Zm64-52a12.01,12.01,0,0,1-12,12h-4.68a47.99,47.99,0,0,0-94.64,0H184V352H488Zm0-68H184V124a12.01,12.01,0,0,1,12-12H476a12.01,12.01,0,0,1,12,12Z"/><path d="M456,240H352v-8h48a8,8,0,0,0,0-16H352V200a7.987,7.987,0,0,0-3.76-6.78l-64-40a7.964,7.964,0,0,0-8.48,0l-64,40A7.987,7.987,0,0,0,208,200v88a8,8,0,0,0,8,8H344a8,8,0,0,0,8-8v-8h32a8,8,0,0,0,0-16H352v-8H456a8,8,0,0,0,0-16ZM288,280H272V248h16Zm48,0H304V240a8,8,0,0,0-8-8H264a8,8,0,0,0-8,8v40H224V204.43l56-35,56,35Z"/><path d="M424,232h8a8,8,0,0,0,0-16h-8a8,8,0,0,0,0,16Z"/></g></svg>
