<svg height="512" viewBox="0 0 512 512" width="512" xmlns="http://www.w3.org/2000/svg"><g><path d="m476 136h-140v-51a28.031 28.031 0 0 0 -28-28h-104a28.031 28.031 0 0 0 -28 28v51h-140a28.031 28.031 0 0 0 -28 28v264a28.031 28.031 0 0 0 28 28h440a28.031 28.031 0 0 0 28-28v-264a28.031 28.031 0 0 0 -28-28zm-272-63h104a12.019 12.019 0 0 1 10.91 7h-125.82a12.019 12.019 0 0 1 10.91-7zm116 23v40h-16v-40zm-32 0v40h-64v-40zm-96 0h16v40h-16zm296 332a12.01 12.01 0 0 1 -12 12h-440a12.01 12.01 0 0 1 -12-12v-264a12.01 12.01 0 0 1 12-12h440a12.01 12.01 0 0 1 12 12z"/><path d="m256 216a72 72 0 1 0 72 72 72.083 72.083 0 0 0 -72-72zm0 128a56 56 0 1 1 56-56 56.062 56.062 0 0 1 -56 56z"/><path d="m256 192a96 96 0 1 0 96 96 96.115 96.115 0 0 0 -96-96zm0 176a80 80 0 1 1 80-80 80.093 80.093 0 0 1 -80 80z"/><path d="m280 300a20.035 20.035 0 0 1 -16 19.6v.4a8 8 0 0 1 -16 0h-8a8 8 0 0 1 0-16h20a4 4 0 0 0 0-8h-8a20 20 0 0 1 -4-39.6v-.4a8 8 0 0 1 16 0h8a8 8 0 0 1 0 16h-20a4 4 0 0 0 0 8h8a20.02 20.02 0 0 1 20 20z"/><path d="m56 160a24 24 0 1 0 24 24 24.027 24.027 0 0 0 -24-24zm0 32a8 8 0 1 1 8-8 8.009 8.009 0 0 1 -8 8z"/><path d="m56 384a24 24 0 1 0 24 24 24.027 24.027 0 0 0 -24-24zm0 32a8 8 0 1 1 8-8 8.009 8.009 0 0 1 -8 8z"/><path d="m456 160a24 24 0 1 0 24 24 24.027 24.027 0 0 0 -24-24zm0 32a8 8 0 1 1 8-8 8.009 8.009 0 0 1 -8 8z"/><path d="m456 384a24 24 0 1 0 24 24 24.027 24.027 0 0 0 -24-24zm0 32a8 8 0 1 1 8-8 8.009 8.009 0 0 1 -8 8z"/></g></svg>