<?xml version="1.0" encoding="UTF-8"?>
<svg xmlns="http://www.w3.org/2000/svg" width="512" height="512" viewBox="0 0 512 512"><g><path d="M224,200H144a8,8,0,0,0-8,8V352a8,8,0,0,0,8,8h80a8,8,0,0,0,8-8V208A8,8,0,0,0,224,200Zm-8,144H152V216h64Z"/><path d="M224,400H144a8,8,0,0,0-8,8v32a8,8,0,0,0,8,8h80a8,8,0,0,0,8-8V408A8,8,0,0,0,224,400Zm-8,32H152V416h64Z"/><path d="M368,200H288a8,8,0,0,0-8,8V352a8,8,0,0,0,8,8h80a8,8,0,0,0,8-8V208A8,8,0,0,0,368,200Zm-8,144H296V216h64Z"/><path d="M368,400H288a8,8,0,0,0-8,8v32a8,8,0,0,0,8,8h80a8,8,0,0,0,8-8V408A8,8,0,0,0,368,400Zm-8,32H296V416h64Z"/><path d="M144,96h16v40a8,8,0,0,0,8,8h32a8,8,0,0,0,8-8V96h16a8,8,0,0,0,5.657-13.657l-40-40a8,8,0,0,0-11.314,0l-40,40A8,8,0,0,0,144,96Zm40-36.687L204.687,80H200a8,8,0,0,0-8,8v40H176V88a8,8,0,0,0-8-8h-4.687Z"/><path d="M322.343,141.657a8,8,0,0,0,11.314,0l40-40A8,8,0,0,0,368,88H352V48a8,8,0,0,0-8-8H312a8,8,0,0,0-8,8V88H288a8,8,0,0,0-5.657,13.657ZM312,104a8,8,0,0,0,8-8V56h16V96a8,8,0,0,0,8,8h4.687L328,124.687,307.313,104Z"/><path d="M496,464H472V16a8,8,0,0,0-8-8H48a8,8,0,0,0-8,8V464H16a8,8,0,0,0-8,8v24a8,8,0,0,0,8,8H496a8,8,0,0,0,8-8V472A8,8,0,0,0,496,464ZM56,24H456V464H408V176a8,8,0,0,0-8-8H112a8,8,0,0,0-8,8V464H56ZM392,184V464H264V184Zm-144,0V464H120V184ZM488,488H24v-8H488Z"/></g></svg>
