<?xml version="1.0" encoding="UTF-8"?>
<svg xmlns="http://www.w3.org/2000/svg" width="512" height="512" viewBox="0 0 512 512"><g><path d="M491.88,230.86A8,8,0,0,0,504,224V184a8,8,0,0,0-3.88-6.86L432,136.27V64a8,8,0,0,0-8-8H376a8,8,0,0,0-8,8V97.87L260.12,33.14a8.015,8.015,0,0,0-8.24,0l-240,144A8,8,0,0,0,8,184v40a8,8,0,0,0,12.12,6.86L56,209.33V440H16a8,8,0,0,0-8,8v32a8,8,0,0,0,8,8H496a8,8,0,0,0,8-8V448a8,8,0,0,0-8-8H456V209.33ZM384,72h32v54.67l-32-19.2ZM488,456v16H24V456ZM72,440V199.73L256,89.33l184,110.4V440ZM260.12,73.14a8.015,8.015,0,0,0-8.24,0L24,209.87V188.53L256,49.33l232,139.2v21.34Z"/><path d="M128,288A128,128,0,1,0,256,160,128.146,128.146,0,0,0,128,288Zm240,0A112,112,0,1,1,256,176,112.127,112.127,0,0,1,368,288Z"/><path d="M248.392,207.861,232.75,256H182.136a8,8,0,0,0-4.7,14.472l40.948,29.751-15.641,48.138a8,8,0,0,0,12.311,8.944L256,327.555l40.948,29.75a8,8,0,0,0,12.311-8.944l-15.641-48.138,40.948-29.751a8,8,0,0,0-4.7-14.472H279.25l-15.642-48.139a8,8,0,0,0-15.216,0Zm17.437,58.612A8,8,0,0,0,273.438,272h31.805L279.512,290.7a8,8,0,0,0-2.907,8.944l9.829,30.25L260.7,311.194a8,8,0,0,0-9.4,0l-25.732,18.695,9.829-30.25a8,8,0,0,0-2.907-8.944L206.757,272h31.805a8,8,0,0,0,7.609-5.527L256,236.222Z"/></g></svg>
