<?xml version="1.0" encoding="UTF-8"?>
<svg xmlns="http://www.w3.org/2000/svg" width="512" height="512" viewBox="0 0 512 512"><g><path d="M124,312h24a12.013,12.013,0,0,1,12,12v8a12.013,12.013,0,0,1-12,12H105a8,8,0,0,0,0,16h43a28.032,28.032,0,0,0,28-28v-8a28.032,28.032,0,0,0-28-28H124a12.013,12.013,0,0,1-12-12v-8a12.013,12.013,0,0,1,12-12h44a8,8,0,0,0,0-16H124a28.032,28.032,0,0,0-28,28v8A28.032,28.032,0,0,0,124,312Z"/><path d="M384,352a8,8,0,0,0,8,8h64a8,8,0,0,0,0-16H400V312h32a8,8,0,0,0,0-16H400V264h56a8,8,0,0,0,0-16H392a8,8,0,0,0-8,8Z"/><path d="M360,344H304V256a8,8,0,0,0-16,0v96a8,8,0,0,0,8,8h64a8,8,0,0,0,0-16Z"/><path d="M208.108,254.685l-16,96a8,8,0,0,0,15.784,2.63L214.777,312h34.446l6.885,41.315a8,8,0,0,0,15.784-2.63l-16-96A8,8,0,0,0,248,248H216A8,8,0,0,0,208.108,254.685ZM222.777,264h18.446l5.333,32H217.444Z"/><path d="M184,232a8,8,0,0,0,8-8V200h24a8,8,0,0,0,0-16H192V168h40a8,8,0,0,0,0-16H184a8,8,0,0,0-8,8v64A8,8,0,0,0,184,232Z"/><path d="M268,232h24a20.023,20.023,0,0,0,20-20V172a20.023,20.023,0,0,0-20-20H268a20.023,20.023,0,0,0-20,20v40A20.023,20.023,0,0,0,268,232Zm-4-60a4,4,0,0,1,4-4h24a4,4,0,0,1,4,4v40a4,4,0,0,1-4,4H268a4,4,0,0,1-4-4Z"/><path d="M496,72a8,8,0,0,0,8-8V40a8,8,0,0,0-8-8H56V16a8,8,0,0,0-8-8H16a8,8,0,0,0-8,8V496a8,8,0,0,0,8,8H496a8,8,0,0,0,8-8V472a8,8,0,0,0-8-8H56V72h72v48H72a8,8,0,0,0-8,8V384a8,8,0,0,0,8,8H488a8,8,0,0,0,8-8V128a8,8,0,0,0-8-8H432V72ZM24,24H40V464H24ZM488,480v8H24v-8Zm-8-344V376H80V136ZM144,120V72H416v48ZM56,56V48H488v8Z"/><path d="M384,180v-8a20.02,20.02,0,0,0-20-20H328a8,8,0,0,0-8,8v64a8,8,0,0,0,16,0V200h12l21.6,28.8a8,8,0,1,0,12.8-9.6l-14.67-19.56A20.033,20.033,0,0,0,384,180Zm-16,0a4,4,0,0,1-4,4H336V168h28a4,4,0,0,1,4,4Z"/></g></svg>
