<svg height="512" viewBox="0 0 512 512" width="512" xmlns="http://www.w3.org/2000/svg"><path d="m496 432h-32v-248a8 8 0 0 0 -3.88-6.86l-200-120a8.015 8.015 0 0 0 -8.24 0l-200 120a8 8 0 0 0 -3.88 6.86v248h-32a8 8 0 0 0 -8 8v24a8 8 0 0 0 8 8h480a8 8 0 0 0 8-8v-24a8 8 0 0 0 -8-8zm-432-243.47 192-115.2 192 115.2v243.47h-48v-144h16a8 8 0 0 0 8-8v-24a8 8 0 0 0 -8-8h-320a8 8 0 0 0 -8 8v24a8 8 0 0 0 8 8h16v144h-48zm64 211.47v-16h256v16zm256 16v16h-256v-16zm-256-48v-16h256v16zm0-32v-16h256v16zm0-32v-16h256v16zm-24-32v-8h304v8zm384 184h-464v-8h464z"/></svg>