<?xml version="1.0" encoding="UTF-8"?>
<svg xmlns="http://www.w3.org/2000/svg" width="512" height="512" viewBox="0 0 512 512"><path d="M496,456H376V399.73a120,120,0,1,0-16,0v27.33l-20.42-10.22a8.005,8.005,0,1,0-7.16,14.32L360,444.94V456H152V428.49l60.16-36.66a8,8,0,1,0-8.32-13.66L152,409.76V263.73a120,120,0,1,0-16,0v82.03l-11.75-7.16a48.127,48.127,0,1,0-8.59,13.5L136,364.49V456H16a8,8,0,0,0-8,8v24a8,8,0,0,0,8,8H496a8,8,0,0,0,8-8V464A8,8,0,0,0,496,456ZM110.35,330.13,84.16,314.17a8,8,0,0,0-8.32,13.66l25.8,15.72a31.962,31.962,0,1,1,8.71-13.42ZM264,280A104,104,0,1,1,376,383.7V325.27l51.15-21.92a8,8,0,0,0-6.3-14.7L376,307.87V280a8,8,0,0,0-16,0V383.7A104.15,104.15,0,0,1,264,280ZM40,144A104,104,0,1,1,152,247.7V189.27l51.15-21.92a8,8,0,0,0-6.3-14.7L152,171.87V144a8,8,0,0,0-16,0V247.7A104.15,104.15,0,0,1,40,144ZM488,480H24v-8H488Z"/></svg>
