<svg height="512" viewBox="0 0 512 512" width="512" xmlns="http://www.w3.org/2000/svg"><g><path d="m280 136h-32a8 8 0 0 0 -8 8v224a8 8 0 0 0 8 8h32a8 8 0 0 0 8-8v-224a8 8 0 0 0 -8-8zm-8 224h-16v-208h16z"/><path d="m216 136h-32a8 8 0 0 0 -8 8v224a8 8 0 0 0 8 8h32a8 8 0 0 0 8-8v-224a8 8 0 0 0 -8-8zm-8 224h-16v-208h16z"/><path d="m408 136h-32a8 8 0 0 0 -8 8v224a8 8 0 0 0 8 8h32a8 8 0 0 0 8-8v-224a8 8 0 0 0 -8-8zm-8 224h-16v-208h16z"/><path d="m344 136h-32a8 8 0 0 0 -8 8v224a8 8 0 0 0 8 8h32a8 8 0 0 0 8-8v-224a8 8 0 0 0 -8-8zm-8 224h-16v-208h16z"/><path d="m152 136h-32a8 8 0 0 0 -8 8v224a8 8 0 0 0 8 8h32a8 8 0 0 0 8-8v-224a8 8 0 0 0 -8-8zm-8 224h-16v-208h16z"/><path d="m40 216h24a8 8 0 0 0 8-8v-64a8 8 0 0 0 -8-8h-24a8 8 0 0 0 -8 8v64a8 8 0 0 0 8 8zm8-64h8v48h-8z"/><path d="m496 176a8 8 0 0 0 8-8v-24a8 8 0 0 0 -8-8h-40v-4a28.031 28.031 0 0 0 -28-28h-392a28.031 28.031 0 0 0 -28 28v248a28.031 28.031 0 0 0 28 28h392a28.031 28.031 0 0 0 28-28v-20h40a8 8 0 0 0 8-8v-48a8 8 0 0 0 -8-8h-40v-120zm-40-24h32v8h-32zm-376 240h-44a12.01 12.01 0 0 1 -12-12v-132h56zm0-160h-56v-100a12.01 12.01 0 0 1 12-12h44zm360 148a12.01 12.01 0 0 1 -12 12h-332v-272h332a12.01 12.01 0 0 1 12 12zm48-68v32h-32v-32z"/></g></svg>