<?xml version="1.0" encoding="UTF-8"?>
<svg xmlns="http://www.w3.org/2000/svg" width="512" height="512" viewBox="0 0 512 512"><path d="M503.76,270.06l-8-32A8,8,0,0,0,488,232H374.94l-2.29-16H428a20.02,20.02,0,0,0,20-20V92a20.02,20.02,0,0,0-20-20H244a20.02,20.02,0,0,0-20,20V196a20.02,20.02,0,0,0,20,20h55.35l-2.29,16H165.29A27.75,27.75,0,0,0,168,220V192a8,8,0,0,0-8-8H112a8,8,0,0,0-8,8v28a27.75,27.75,0,0,0,2.71,12H24a8,8,0,0,0-7.76,6.06l-8,32A8,8,0,0,0,16,280H94.41L64.13,446.57A8,8,0,0,0,72,456h32a7.99,7.99,0,0,0,7.87-6.57L125.22,376H386.78l13.35,73.43A7.99,7.99,0,0,0,408,456h32a8,8,0,0,0,7.87-9.43L417.59,280H496a8,8,0,0,0,7.76-9.94ZM244,200a4,4,0,0,1-4-4V92a4,4,0,0,1,4-4H428a4,4,0,0,1,4,4V196a4,4,0,0,1-4,4H370.37l-2.45-17.13A8,8,0,0,0,360,176H312a8,8,0,0,0-7.92,6.87L301.63,200Zm114.78,32H313.22l5.72-40h34.12ZM120,200h32v20a12.01,12.01,0,0,1-12,12h-8a12.01,12.01,0,0,1-12-12ZM97.32,440H81.59l29.09-160h15.73Zm30.81-80,1.46-8H382.41l1.46,8Zm4.36-24,10.19-56H369.32l10.19,56ZM430.41,440H414.68L385.59,280h15.73ZM26.25,264l4-16h451.5l4,16Z"/></svg>
