<?xml version="1.0" encoding="UTF-8"?>
<svg xmlns="http://www.w3.org/2000/svg" width="512" height="512" viewBox="0 0 512 512"><g><path d="M491.88,230.86A8,8,0,0,0,504,224V184a8,8,0,0,0-3.88-6.86L432,136.27V64a8,8,0,0,0-8-8H376a8,8,0,0,0-8,8V97.87L260.12,33.14a8.015,8.015,0,0,0-8.24,0l-240,144A8,8,0,0,0,8,184v40a8,8,0,0,0,12.12,6.86L56,209.33V440H16a8,8,0,0,0-8,8v32a8,8,0,0,0,8,8H496a8,8,0,0,0,8-8V448a8,8,0,0,0-8-8H456V209.33ZM384,72h32v54.67l-32-19.2ZM488,456v16H24V456ZM216,416h-8V280a8,8,0,0,0-8-8H104a8,8,0,0,0-8,8V416H88a8,8,0,0,0-8,8v16H72V199.73L256,89.33l184,110.4V440H224V424A8,8,0,0,0,216,416Zm-8,16v8H96v-8Zm-96-16V288h80V416ZM260.12,73.14a8.015,8.015,0,0,0-8.24,0L24,209.87V188.53L256,49.33l232,139.2v21.34Z"/><path d="M200,184a56,56,0,1,0,56-56A56.063,56.063,0,0,0,200,184Zm96,0a40,40,0,1,1-40-40A40.045,40.045,0,0,1,296,184Z"/><path d="M176,376a8,8,0,0,0,8-8V352a8,8,0,0,0-16,0v16A8,8,0,0,0,176,376Z"/><path d="M240,280v72h-8a8,8,0,0,0-8,8v24a8,8,0,0,0,8,8H424a8,8,0,0,0,8-8V360a8,8,0,0,0-8-8h-8V280a8,8,0,0,0-8-8H248A8,8,0,0,0,240,280Zm176,96H240v-8H416ZM256,288H400v64H256Z"/></g></svg>
