<svg height="512" viewBox="0 0 512 512" width="512" xmlns="http://www.w3.org/2000/svg"><g><path d="m435.67 376.61a8 8 0 0 0 -4.71-3.92l-30.54-9.54a8 8 0 0 0 -10.02 5.25l-2.4 7.67-100.94-31.59a23.98 23.98 0 0 0 -19.2 2.11l-83.15 48.03a24.1 24.1 0 0 0 -11.84 14.84l-65.45-20.43a24 24 0 0 0 -30.06 15.75l-4.77 15.27a24.005 24.005 0 0 0 15.75 30.07l168.45 52.6a23.886 23.886 0 0 0 18.1-1.55l69.48-35.75a8.064 8.064 0 0 1 6.04-.52l8.98 2.81-2.38 7.6a8.01 8.01 0 0 0 5.25 10.02l30.55 9.54a7.922 7.922 0 0 0 2.39.36 8 8 0 0 0 7.63-5.61l33.39-106.91a8.036 8.036 0 0 0 -.55-6.1zm-80.49 73.02a23.834 23.834 0 0 0 -18.14 1.57l-69.44 35.73a7.98 7.98 0 0 1 -6.04.51l-168.45-52.6a8 8 0 0 1 -5.25-10.02l4.77-15.27a7.975 7.975 0 0 1 10.02-5.25l72.03 22.49a1.009 1.009 0 0 1 .07.15l7.43 14.16a24.007 24.007 0 0 0 32.4 10.12l63.77-33.42a8 8 0 1 0 -7.43-14.17l-63.77 33.42a8.016 8.016 0 0 1 -10.8-3.37l-7.42-14.17a8.335 8.335 0 0 1 -.61-1.49 8.008 8.008 0 0 1 3.98-9.31c.1-.05.19-.11.29-.16l83.28-48.11a7.981 7.981 0 0 1 6.39-.7l100.97 31.6-19.07 61.09zm34.76 27.58-15.27-4.77 28.62-91.63 15.27 4.77z"/><path d="m380.44 89.34-20.44-13.62v-43.72a8 8 0 0 0 -8-8h-32a8 8 0 0 0 -8 8v11.72l-51.56-34.38a8.013 8.013 0 0 0 -8.88 0l-120 80a8.033 8.033 0 0 0 -3.56 6.66v32a8.009 8.009 0 0 0 12.44 6.66l19.56-13.05v94.39h-16a8 8 0 0 0 -8 8v24a8 8 0 0 0 8 8h72v40a8 8 0 0 0 16 0v-40h16v64a8 8 0 0 0 16 0v-64h16v40a8 8 0 0 0 16 0v-40h72a8 8 0 0 0 8-8v-24a8 8 0 0 0 -8-8h-16v-94.39l19.56 13.05a8.026 8.026 0 0 0 4.44 1.34 8.015 8.015 0 0 0 8-8v-32a8.033 8.033 0 0 0 -3.56-6.66zm-52.44-49.34h16v25.05l-16-10.66zm32 192v8h-208v-8zm-128-88h-40a8 8 0 0 0 -8 8v64h-8v-104a8.424 8.424 0 0 0 -.07-1.01l80.07-53.37 80.07 53.37a8.424 8.424 0 0 0 -.07 1.01v104h-96v-64a8 8 0 0 0 -8-8zm-8 16v56h-24v-56zm144-46.95-107.56-71.71a8.026 8.026 0 0 0 -8.88 0l-107.56 71.71v-12.77l112-74.66 59.48 39.65c.04.02.07.05.11.07l31.93 21.29c.01 0 .01.01.02.01l20.46 13.64z"/><path d="m248 152v32a8 8 0 0 0 8 8h64a8 8 0 0 0 8-8v-32a8 8 0 0 0 -8-8h-64a8 8 0 0 0 -8 8zm16 8h48v16h-48z"/><path d="m232 104a24 24 0 1 0 24-24 24.028 24.028 0 0 0 -24 24zm32 0a8 8 0 1 1 -8-8 8.009 8.009 0 0 1 8 8z"/><path d="m224 312a8 8 0 0 0 -8 8v8a8 8 0 0 0 16 0v-8a8 8 0 0 0 -8-8z"/></g></svg>