<?xml version="1.0" encoding="UTF-8"?>
<svg xmlns="http://www.w3.org/2000/svg" width="512" height="512" viewBox="0 0 512 512"><g><path d="M496,464H472V272h8a8,8,0,0,0,8-8V240a8,8,0,0,0-8-8h-8V105.73l12.79,5.6A8,8,0,0,0,496,104V72a8,8,0,0,0-4.79-7.33l-128-56a8.052,8.052,0,0,0-6.42,0l-128,56A8,8,0,0,0,224,72v32a8,8,0,0,0,11.21,7.33l12.79-5.6V152H32a8,8,0,0,0-8,8v24a8,8,0,0,0,8,8H56v40H32a8,8,0,0,0-8,8v24a8,8,0,0,0,8,8h8V464H16a8,8,0,0,0-8,8v24a8,8,0,0,0,8,8H496a8,8,0,0,0,8-8V472A8,8,0,0,0,496,464ZM240,91.77V77.23l120-52.5,120,52.5V91.77l-12.86-5.63a.076.076,0,0,1-.04-.02L363.21,40.67a8.025,8.025,0,0,0-6.42,0L252.9,86.12a.076.076,0,0,1-.04.02Zm216,6.96V232H264V98.73l96-42ZM40,176v-8H248v8Zm208,16v40H216V192Zm-48,0v40H168V192Zm-48,0v40H120V192Zm-48,0v40H72V192ZM40,248H472v8H40ZM352,352H280a8,8,0,0,0-8,8V464h-8V272H456V464H360V360A8,8,0,0,0,352,352Zm-8,16v96H288V368ZM232,312H72a8,8,0,0,0-8,8v24a8,8,0,0,0,8,8V464H56V272H248V464H232V352a8,8,0,0,0,8-8V320A8,8,0,0,0,232,312ZM80,336v-8H224v8Zm136,16V464H88V352ZM488,488H24v-8H488Z"/><path d="M376,424h64a8,8,0,0,0,8-8V360a8,8,0,0,0-8-8H376a8,8,0,0,0-8,8v56A8,8,0,0,0,376,424Zm8-56h48v40H384Z"/><path d="M376,184h64a8,8,0,0,0,8-8V120a8,8,0,0,0-8-8H376a8,8,0,0,0-8,8v56A8,8,0,0,0,376,184Zm8-56h48v40H384Z"/><path d="M280,184h64a8,8,0,0,0,8-8V120a8,8,0,0,0-8-8H280a8,8,0,0,0-8,8v56A8,8,0,0,0,280,184Zm8-56h48v40H288Z"/><path d="M328,432a8,8,0,0,0,8-8V408a8,8,0,0,0-16,0v16A8,8,0,0,0,328,432Z"/></g></svg>
