<?xml version="1.0" encoding="UTF-8"?>
<svg xmlns="http://www.w3.org/2000/svg" width="512" height="512" viewBox="0 0 512 512"><g><path d="M480,336h-8V36A28.031,28.031,0,0,0,444,8H68A28.031,28.031,0,0,0,40,36V336H32a24,24,0,0,0,0,48H148.09l-44.5,108.98A8,8,0,0,0,111,504h48a8.009,8.009,0,0,0,7.41-4.98L213.37,384h85.21l45.99,114.97A8.006,8.006,0,0,0,352,504h48a8.01,8.01,0,0,0,7.43-10.97L363.82,384H480a24,24,0,0,0,0-48ZM56,36A12.01,12.01,0,0,1,68,24H444a12.01,12.01,0,0,1,12,12V336H56Zm97.62,452H122.91l42.47-104h30.71Zm234.56,0H357.42l-41.6-104h30.76ZM480,368H32a8,8,0,0,1,0-16H480a8,8,0,0,1,0,16Z"/><path d="M212.24,217.22l-64-40a7.964,7.964,0,0,0-8.48,0l-64,40A7.987,7.987,0,0,0,72,224v88a8,8,0,0,0,8,8H208a8,8,0,0,0,8-8V224A7.987,7.987,0,0,0,212.24,217.22ZM152,304H136V272h16Zm48,0H168V264a8,8,0,0,0-8-8H128a8,8,0,0,0-8,8v40H88V228.43l56-35,56,35Z"/><path d="M408,144H336V72a8,8,0,0,0-8-8,88,88,0,1,0,88,88A8,8,0,0,0,408,144Zm-80,80a72,72,0,0,1-8-143.559V152a8,8,0,0,0,8,8h71.559A72.108,72.108,0,0,1,328,224Z"/><path d="M352,40a8,8,0,0,0-8,8v80a8,8,0,0,0,8,8h80a8,8,0,0,0,8-8A88.1,88.1,0,0,0,352,40Zm8,80V56.441A72.148,72.148,0,0,1,423.559,120Z"/><path d="M223,128H144a8,8,0,0,0-8,8v24a8,8,0,0,0,16,0V144h71a8,8,0,0,0,0-16Z"/></g></svg>
