<?xml version="1.0" encoding="UTF-8"?>
<svg xmlns="http://www.w3.org/2000/svg" width="512" height="512" viewBox="0 0 512 512"><g><path d="M380.44,105.34,360,91.72V48a8,8,0,0,0-8-8H320a8,8,0,0,0-8,8V59.72L260.44,25.34a8.013,8.013,0,0,0-8.88,0l-120,80A8.033,8.033,0,0,0,128,112v32a8.009,8.009,0,0,0,12.44,6.66L160,137.61V232H144a8,8,0,0,0-8,8v24a8,8,0,0,0,8,8H368a8,8,0,0,0,8-8V240a8,8,0,0,0-8-8H352V137.61l19.56,13.05A8.026,8.026,0,0,0,376,152a8.015,8.015,0,0,0,8-8V112A8.033,8.033,0,0,0,380.44,105.34ZM328,56h16V81.05L328,70.39Zm32,192v8H152v-8ZM232,160H192a8,8,0,0,0-8,8v64h-8V128a8.424,8.424,0,0,0-.07-1.01L256,73.62l80.07,53.37A8.424,8.424,0,0,0,336,128V232H240V168A8,8,0,0,0,232,160Zm-8,16v56H200V176Zm144-46.95L260.44,57.34a8.026,8.026,0,0,0-8.88,0L144,129.05V116.28L256,41.62l112,74.66Z"/><path d="M248,168v32a8,8,0,0,0,8,8h64a8,8,0,0,0,8-8V168a8,8,0,0,0-8-8H256A8,8,0,0,0,248,168Zm16,8h48v16H264Z"/><path d="M232,120a24,24,0,1,0,24-24A24.027,24.027,0,0,0,232,120Zm32,0a8,8,0,1,1-8-8A8.009,8.009,0,0,1,264,120Z"/><path d="M160.33,356.5,89.7,291.45A23.983,23.983,0,0,0,72,284.57V216a24.032,24.032,0,0,0-24-24H32A24.032,24.032,0,0,0,8,216V392.47a23.9,23.9,0,0,0,6.87,16.81l54.84,55.67A7.928,7.928,0,0,1,72,470.56V488a8,8,0,0,0,8,8h80a8,8,0,0,0,8-8l.07-113.8A24.018,24.018,0,0,0,160.33,356.5ZM152,480H88v-9.44a23.812,23.812,0,0,0-6.9-16.84L26.29,398.08A7.981,7.981,0,0,1,24,392.47V216a8.011,8.011,0,0,1,8-8H48a8.011,8.011,0,0,1,8,8v75.47c-.04.03-.08.07-.12.1L44.57,302.88a24.009,24.009,0,0,0,0,33.95l50.91,50.91a8,8,0,1,0,11.32-11.32L55.89,325.51a8,8,0,0,1,0-11.31L67.2,302.89a8.429,8.429,0,0,1,1.23-1.02,8.011,8.011,0,0,1,10.08,1.02c.08.07.16.15.24.23l70.75,65.15a7.968,7.968,0,0,1,2.57,5.89Z"/><path d="M480.07,192h-16a24.032,24.032,0,0,0-24,24v68.57a23.944,23.944,0,0,0-17.7,6.88l-70.62,65.04A24.029,24.029,0,0,0,344,374.2l.07,113.8a8,8,0,0,0,8,8h80a8,8,0,0,0,8-8V470.56a8.083,8.083,0,0,1,2.3-5.62l54.85-55.68a23.879,23.879,0,0,0,6.85-16.79V216A24.032,24.032,0,0,0,480.07,192Zm8,200.47a7.965,7.965,0,0,1-2.27,5.59l-54.82,55.65a23.82,23.82,0,0,0-6.91,16.85V480h-64L360,374.16a8.006,8.006,0,0,1,.67-3.22,8.129,8.129,0,0,1,1.91-2.68l70.74-65.15c.08-.07.16-.15.24-.22a7.966,7.966,0,0,1,11.31,0l11.31,11.31a8,8,0,0,1,0,11.31l-50.91,50.91a8,8,0,0,0,11.32,11.32l50.91-50.91a24.009,24.009,0,0,0,0-33.95l-11.31-11.3c-.04-.04-.08-.07-.12-.11V216a8.011,8.011,0,0,1,8-8h16a8.011,8.011,0,0,1,8,8Z"/></g></svg>
