<svg id="Capa_1" enable-background="new 0 0 512 512" height="512" viewBox="0 0 512 512" width="512" xmlns="http://www.w3.org/2000/svg"><g><path d="m496 328h-480c-4.418 0-8 3.582-8 8v152c0 4.418 3.582 8 8 8h480c4.418 0 8-3.582 8-8v-152c0-4.418-3.582-8-8-8zm-120 152h-168v-112h168zm-352-136h352v8h-352zm0 24h168v112h-168zm464 112h-96v-136h96z"/><path d="m472 448c4.418 0 8-3.582 8-8v-48c0-4.418-3.582-8-8-8s-8 3.582-8 8v48c0 4.418 3.582 8 8 8z"/><path d="m224 440c4.418 0 8-3.582 8-8v-16c0-4.418-3.582-8-8-8s-8 3.582-8 8v16c0 4.418 3.582 8 8 8z"/><path d="m176 408c-4.418 0-8 3.582-8 8v16c0 4.418 3.582 8 8 8s8-3.582 8-8v-16c0-4.418-3.582-8-8-8z"/><path d="m280 120c4.418 0 8-3.582 8-8v-16c0-4.418-3.582-8-8-8s-8 3.582-8 8v16c0 4.418 3.582 8 8 8z"/><path d="m232 88c-4.418 0-8 3.582-8 8v16c0 4.418 3.582 8 8 8s8-3.582 8-8v-16c0-4.418-3.582-8-8-8z"/><path d="m453.66 234.34-32-32c-1.502-1.499-3.538-2.341-5.66-2.34h-8v-32h88c4.418 0 8-3.582 8-8v-136c0-4.418-3.582-8-8-8h-480c-4.418 0-8 3.582-8 8v136c0 4.418 3.582 8 8 8h344v32h-8c-2.122-.001-4.158.841-5.66 2.34l-32 32c-.467.498-1.098 1.288-1.59 2.39-.595 1.33-.726 2.529-.75 3.27v24c0 4.418 3.582 8 8 8h128c4.418 0 8-3.582 8-8v-24c-.025-.701-.148-1.797-.655-3.029-.512-1.244-1.206-2.115-1.685-2.631zm-277.66-82.34h-152v-96h152zm72 0h-56v-96h56zm72 0h-56v-96h56zm120 104h-112v-8h112zm-27.31-40 16 16h-89.38l16-16zm-36.69-16v-32h16v32zm112-48h-152v-96h152zm0-112h-464v-8h464z"/></g></svg>