<svg height="512" viewBox="0 0 512 512" width="512" xmlns="http://www.w3.org/2000/svg"><g><path d="m424 8h-336a8 8 0 0 0 -8 8v480a8 8 0 0 0 8 8h336a8 8 0 0 0 8-8v-480a8 8 0 0 0 -8-8zm-216 16h96v32h-96zm-8 48h112a8 8 0 0 0 8-8v-8h64v400h-256v-400h64v8a8 8 0 0 0 8 8zm216 416h-320v-464h96v16h-72a8 8 0 0 0 -8 8v416a8 8 0 0 0 8 8h272a8 8 0 0 0 8-8v-416a8 8 0 0 0 -8-8h-72v-16h96z"/><path d="m308.53 153.41-48-33a7.982 7.982 0 0 0 -9.06 0l-48 33a8 8 0 0 0 -3.47 6.59v72a8 8 0 0 0 8 8h96a8 8 0 0 0 8-8v-72a8 8 0 0 0 -3.47-6.59zm-44.53 70.59h-16v-24h16zm32 0h-16v-32a8 8 0 0 0 -8-8h-32a8 8 0 0 0 -8 8v32h-16v-59.79l40-27.5 40 27.5z"/><path d="m168 272h-16a8 8 0 0 0 0 16h16a8 8 0 0 0 0-16z"/><path d="m184 280a8 8 0 0 0 8 8h168a8 8 0 0 0 0-16h-168a8 8 0 0 0 -8 8z"/><path d="m168 296h-16a8 8 0 0 0 0 16h16a8 8 0 0 0 0-16z"/><path d="m360 296h-168a8 8 0 0 0 0 16h168a8 8 0 0 0 0-16z"/><path d="m168 320h-16a8 8 0 0 0 0 16h16a8 8 0 0 0 0-16z"/><path d="m360 320h-168a8 8 0 0 0 0 16h168a8 8 0 0 0 0-16z"/><path d="m168 344h-16a8 8 0 0 0 0 16h16a8 8 0 0 0 0-16z"/><path d="m360 344h-168a8 8 0 0 0 0 16h168a8 8 0 0 0 0-16z"/><path d="m168 368h-16a8 8 0 0 0 0 16h16a8 8 0 0 0 0-16z"/><path d="m360 368h-168a8 8 0 0 0 0 16h168a8 8 0 0 0 0-16z"/></g></svg>