<svg height="512" viewBox="0 0 512 512" width="512" xmlns="http://www.w3.org/2000/svg"><g><path d="m496 400h-32v-10.71a28.026 28.026 0 0 0 16-25.29v-64a28.043 28.043 0 0 0 -24-27.71v-28.29a28.031 28.031 0 0 0 -28-28h-184a28.031 28.031 0 0 0 -28 28v28.29a28.043 28.043 0 0 0 -24 27.71v64a28.043 28.043 0 0 0 24 27.71v8.29h-72v-24a8 8 0 0 0 -8-8h-32v-160h48a7.993 7.993 0 0 0 7.98-8.53l-8-120a8 8 0 0 0 -7.98-7.47h-96a8 8 0 0 0 -7.98 7.47l-8 120a7.993 7.993 0 0 0 7.98 8.53h48v160h-32a8 8 0 0 0 -8 8v24h-32a8 8 0 0 0 -8 8v24a8 8 0 0 0 8 8h480a8 8 0 0 0 8-8v-24a8 8 0 0 0 -8-8zm-264-156a12.01 12.01 0 0 1 12-12h184a12.01 12.01 0 0 1 12 12v28.29a28.043 28.043 0 0 0 -24 27.71v28h-160v-28a28.043 28.043 0 0 0 -24-27.71zm-24 120v-64a12.01 12.01 0 0 1 12-12h8a12.01 12.01 0 0 1 12 12v36a8 8 0 0 0 8 8h176a8 8 0 0 0 8-8v-36a12.01 12.01 0 0 1 12-12h8a12.01 12.01 0 0 1 12 12v64a12.01 12.01 0 0 1 -12 12h-232a12.01 12.01 0 0 1 -12-12zm240 28v8h-16v-8zm-32 0v8h-152v-8zm-168 0v8h-16v-8zm-199.45-200 6.93-104h81.04l6.93 104zm15.45 192h64v16h-64zm424 40h-464v-8h464z"/><path d="m264 192h144a8 8 0 0 0 8-8v-104a8 8 0 0 0 -8-8h-144a8 8 0 0 0 -8 8v104a8 8 0 0 0 8 8zm8-104h128v88h-128z"/><path d="m384 96h-96a8 8 0 0 0 -8 8v56a8 8 0 0 0 8 8h96a8 8 0 0 0 8-8v-56a8 8 0 0 0 -8-8zm-8 56h-80v-40h80z"/></g></svg>