<svg height="512" viewBox="0 0 512 512" width="512" xmlns="http://www.w3.org/2000/svg"><g><path d="m184 40a72 72 0 1 0 72 72 72.083 72.083 0 0 0 -72-72zm0 128a56 56 0 1 1 56-56 56.062 56.062 0 0 1 -56 56z"/><path d="m424 8h-336a8 8 0 0 0 -8 8v480a8 8 0 0 0 8 8h336a8 8 0 0 0 8-8v-480a8 8 0 0 0 -8-8zm-8 480h-320v-464h320z"/><path d="m208 124a20.035 20.035 0 0 1 -16 19.6v.4a8 8 0 0 1 -16 0h-8a8 8 0 0 1 0-16h20a4 4 0 0 0 0-8h-8a20 20 0 0 1 -4-39.6v-.4a8 8 0 0 1 16 0h8a8 8 0 0 1 0 16h-20a4 4 0 0 0 0 8h8a20.02 20.02 0 0 1 20 20z"/><path d="m280 112h112a8 8 0 0 0 8-8v-40a8 8 0 0 0 -8-8h-112a8 8 0 0 0 -8 8v40a8 8 0 0 0 8 8zm8-40h96v24h-96z"/><path d="m280 136h112a8 8 0 0 0 0-16h-112a8 8 0 0 0 0 16z"/><path d="m280 160h64a8 8 0 0 0 0-16h-64a8 8 0 0 0 0 16z"/><path d="m120 224h272a8 8 0 0 0 0-16h-272a8 8 0 0 0 0 16z"/><path d="m120 248h272a8 8 0 0 0 0-16h-272a8 8 0 0 0 0 16z"/><path d="m120 272h272a8 8 0 0 0 0-16h-272a8 8 0 0 0 0 16z"/><path d="m120 296h272a8 8 0 0 0 0-16h-272a8 8 0 0 0 0 16z"/><path d="m120 320h136a8 8 0 0 0 0-16h-136a8 8 0 0 0 0 16z"/><path d="m288 320a8 8 0 0 0 0-16h-8a8 8 0 0 0 0 16z"/><path d="m301.956 429.856-42.932 9.893c-6.977 1.607-9.957.558-10.179.119-.349-.693.129-3.308.444-5.039.649-3.556 1.455-7.98.065-12.677-2.741-9.261-12.262-14.678-26.123-14.862a150.021 150.021 0 0 0 -78.042 20.675 8 8 0 0 0 8.106 13.8 133.973 133.973 0 0 1 69.724-18.471c6.511.086 10.524 1.818 10.994 3.4.306 1.039-.1 3.285-.464 5.266-.74 4.06-1.754 9.619 1 15.1 1.971 3.92 6.759 9.545 17.978 9.544a45.083 45.083 0 0 0 10.086-1.262l42.932-9.892a8 8 0 0 0 -3.592-15.592z"/><path d="m368 392a40 40 0 1 0 40 40 40.045 40.045 0 0 0 -40-40zm0 64a24 24 0 1 1 24-24 24.028 24.028 0 0 1 -24 24z"/></g></svg>