<svg height="512" viewBox="0 0 512 512" width="512" xmlns="http://www.w3.org/2000/svg"><g><path d="m496 72h-480a8 8 0 0 0 -8 8v352a8 8 0 0 0 8 8h480a8 8 0 0 0 8-8v-352a8 8 0 0 0 -8-8zm-8 352h-464v-336h464z"/><path d="m464 104h-416a8 8 0 0 0 -8 8v288a8 8 0 0 0 8 8h416a8 8 0 0 0 8-8v-288a8 8 0 0 0 -8-8zm-328 288h-80v-144h80zm320 0h-16v-96a8 8 0 0 0 -16 0v96h-272v-144h104a8 8 0 0 0 0-16h-200v-32h32a8 8 0 0 0 0-16h-32v-64h80v40a8 8 0 0 0 16 0v-40h304z"/><path d="m336 248h96a8 8 0 0 0 8-8v-96a8 8 0 0 0 -8-8h-96a8 8 0 0 0 -8 8v96a8 8 0 0 0 8 8zm8-96h80v80h-80z"/></g></svg>