<?xml version="1.0" encoding="UTF-8"?>
<svg xmlns="http://www.w3.org/2000/svg" width="512" height="512" viewBox="0 0 512 512"><g><path d="M491.88,230.86A8,8,0,0,0,504,224V184a8,8,0,0,0-3.88-6.86L432,136.27V64a8,8,0,0,0-8-8H376a8,8,0,0,0-8,8V97.87L260.12,33.14a8.015,8.015,0,0,0-8.24,0l-31.2,18.72A119.967,119.967,0,0,0,17.16,173.97l-5.28,3.17A8,8,0,0,0,8,184v40a8,8,0,0,0,12.12,6.86l25.75-15.45a123.41,123.41,0,0,0,10.14,8.54c0,.08-.01.17-.01.25V440H16a8,8,0,0,0-8,8v32a8,8,0,0,0,8,8H496a8,8,0,0,0,8-8V448a8,8,0,0,0-8-8H456V209.33ZM384,72h32v54.67l-32-19.2ZM24,209.87V188.53l.31-.19a121.9,121.9,0,0,0,10.43,15.09ZM24,128A104,104,0,1,1,128,232,104.112,104.112,0,0,1,24,128ZM243.83,96.63,256,89.33l184,110.4V440H224V424a8,8,0,0,0-8-8h-8V280a8,8,0,0,0-8-8H104a8,8,0,0,0-8,8V416H88a8,8,0,0,0-8,8v16H72V234.1A119.988,119.988,0,0,0,243.83,96.63ZM208,432v8H96v-8Zm-96-16V288h80V416Zm376,40v16H24V456ZM260.12,73.14a8.015,8.015,0,0,0-8.24,0l-13.39,8.04a120.548,120.548,0,0,0-8.46-16.27L256,49.33l232,139.2v21.34Z"/><path d="M176,376a8,8,0,0,0,8-8V352a8,8,0,0,0-16,0v16A8,8,0,0,0,176,376Z"/><path d="M240,280v72h-8a8,8,0,0,0-8,8v24a8,8,0,0,0,8,8H424a8,8,0,0,0,8-8V360a8,8,0,0,0-8-8h-8V280a8,8,0,0,0-8-8H248A8,8,0,0,0,240,280Zm176,96H240v-8H416ZM256,288H400v64H256Z"/><path d="M74.343,181.657a8,8,0,0,0,11.314,0l96-96a8,8,0,0,0-11.314-11.314l-96,96A8,8,0,0,0,74.343,181.657Z"/><path d="M88,120A24,24,0,1,0,64,96,24.028,24.028,0,0,0,88,120Zm0-32a8,8,0,1,1-8,8A8.009,8.009,0,0,1,88,88Z"/><path d="M144,160a24,24,0,1,0,24-24A24.028,24.028,0,0,0,144,160Zm32,0a8,8,0,1,1-8-8A8.009,8.009,0,0,1,176,160Z"/></g></svg>
