<?xml version="1.0" encoding="UTF-8"?>
<svg xmlns="http://www.w3.org/2000/svg" width="512" height="512" viewBox="0 0 512 512"><g><path d="M496,464H288V296H464a8,8,0,0,0,8-8V80a8,8,0,0,0-8-8H288V32a8.033,8.033,0,0,0-3.56-6.66l-24-16a8.013,8.013,0,0,0-8.88,0l-24,16A8.033,8.033,0,0,0,224,32V72H48a8,8,0,0,0-8,8V288a8,8,0,0,0,8,8H224V464H16a8,8,0,0,0-8,8v24a8,8,0,0,0,8,8H496a8,8,0,0,0,8-8V472A8,8,0,0,0,496,464ZM240,36.28l16-10.67,16,10.67V72H240ZM56,280V88H456V280Zm216,16V464H240V296ZM488,488H24v-8H488Z"/><path d="M272,240a8,8,0,0,0,8-8V162.422l49.344,74.016A8,8,0,0,0,344,232V136a8,8,0,0,0-16,0v69.578l-49.344-74.016A8,8,0,0,0,264,136v96A8,8,0,0,0,272,240Z"/><path d="M248,232a8,8,0,0,0-8-8H184V192h32a8,8,0,0,0,0-16H184V144h56a8,8,0,0,0,0-16H176a8,8,0,0,0-8,8v96a8,8,0,0,0,8,8h64A8,8,0,0,0,248,232Z"/><path d="M152,164v-8a28.031,28.031,0,0,0-28-28H80a8,8,0,0,0-8,8v96a8,8,0,0,0,16,0V192H99.72l29.62,44.44a8,8,0,0,0,13.32-8.88L118.95,192H124A28.031,28.031,0,0,0,152,164ZM88,176V144h36a12.01,12.01,0,0,1,12,12v8a12.01,12.01,0,0,1-12,12Z"/><path d="M368,144h24v88a8,8,0,0,0,16,0V144h24a8,8,0,0,0,0-16H368a8,8,0,0,0,0,16Z"/></g></svg>
