<svg height="512" viewBox="0 0 512 512" width="512" xmlns="http://www.w3.org/2000/svg"><g><path d="m256 48c-79.4 0-144 64.6-144 144s64.6 144 144 144 144-64.6 144-144-64.6-144-144-144zm0 272a128 128 0 1 1 128-128 128.144 128.144 0 0 1 -128 128z"/><path d="m440 192c0-101.46-82.54-184-184-184s-184 82.54-184 184c0 90.55 65.74 166.02 152 181.21v18.79h-8a8 8 0 0 0 -8 8v96a8 8 0 0 0 8 8h80a8 8 0 0 0 8-8v-96a8 8 0 0 0 -8-8h-8v-18.79c86.26-15.19 152-90.66 152-181.21zm-152 296h-64v-80h64zm-48-96v-16h32v16zm16-32c-92.64 0-168-75.36-168-168s75.36-168 168-168 168 75.36 168 168-75.36 168-168 168z"/><path d="m324.24 161.22-64-40a7.964 7.964 0 0 0 -8.48 0l-64 40a7.987 7.987 0 0 0 -3.76 6.78v88a8 8 0 0 0 8 8h128a8 8 0 0 0 8-8v-88a7.987 7.987 0 0 0 -3.76-6.78zm-60.24 86.78h-16v-32h16zm48 0h-32v-40a8 8 0 0 0 -8-8h-32a8 8 0 0 0 -8 8v40h-32v-75.57l56-35 56 35z"/></g></svg>