<svg height="512" viewBox="0 0 512 512" width="512" xmlns="http://www.w3.org/2000/svg"><g><path d="m496 464h-208v-168h176a8 8 0 0 0 8-8v-208a8 8 0 0 0 -8-8h-176v-40a8.033 8.033 0 0 0 -3.56-6.66l-24-16a8.013 8.013 0 0 0 -8.88 0l-24 16a8.033 8.033 0 0 0 -3.56 6.66v40h-176a8 8 0 0 0 -8 8v208a8 8 0 0 0 8 8h176v168h-208a8 8 0 0 0 -8 8v24a8 8 0 0 0 8 8h480a8 8 0 0 0 8-8v-24a8 8 0 0 0 -8-8zm-256-427.72 16-10.67 16 10.67v35.72h-32zm-184 243.72v-192h400v192zm216 16v168h-32v-168zm216 192h-464v-8h464z"/><path d="m152 204v8a28.031 28.031 0 0 1 -28 28h-43a8 8 0 0 1 0-16h43a12.01 12.01 0 0 0 12-12v-8a12.01 12.01 0 0 0 -12-12h-24a28.031 28.031 0 0 1 -28-28v-8a28.031 28.031 0 0 1 28-28h44a8 8 0 0 1 0 16h-44a12.01 12.01 0 0 0 -12 12v8a12.01 12.01 0 0 0 12 12h24a28.031 28.031 0 0 1 28 28z"/><path d="m248 212v-56a28.032 28.032 0 0 0 -28-28h-24a28.032 28.032 0 0 0 -28 28v56a28.032 28.032 0 0 0 28 28h24a28.032 28.032 0 0 0 28-28zm-16 0a12.013 12.013 0 0 1 -12 12h-24a12.013 12.013 0 0 1 -12-12v-56a12.013 12.013 0 0 1 12-12h24a12.013 12.013 0 0 1 12 12z"/><path d="m368 240h44a28.032 28.032 0 0 0 28-28v-56a28.032 28.032 0 0 0 -28-28h-44a8 8 0 0 0 -8 8v96a8 8 0 0 0 8 8zm8-96h36a12.013 12.013 0 0 1 12 12v56a12.013 12.013 0 0 1 -12 12h-36z"/><path d="m272 240h64a8 8 0 0 0 0-16h-56v-88a8 8 0 0 0 -16 0v96a8 8 0 0 0 8 8z"/></g></svg>