<?xml version="1.0" encoding="UTF-8"?>
<svg xmlns="http://www.w3.org/2000/svg" width="512" height="512" viewBox="0 0 512 512"><g><path d="M260.44,89.34,240,75.72V32a8,8,0,0,0-8-8H200a8,8,0,0,0-8,8V43.72L140.44,9.34a8.013,8.013,0,0,0-8.88,0l-120,80A8.033,8.033,0,0,0,8,96v32a8.009,8.009,0,0,0,12.44,6.66L40,121.61V216H24a8,8,0,0,0-8,8v24a8,8,0,0,0,8,8H248a8,8,0,0,0,8-8V224a8,8,0,0,0-8-8H232V121.61l19.56,13.05A8.026,8.026,0,0,0,256,136a8.015,8.015,0,0,0,8-8V96A8.033,8.033,0,0,0,260.44,89.34ZM208,40h16V65.05L208,54.39Zm32,192v8H32v-8ZM112,144H72a8,8,0,0,0-8,8v64H56V112a8.424,8.424,0,0,0-.07-1.01L136,57.62l80.07,53.37A8.424,8.424,0,0,0,216,112V216H120V152A8,8,0,0,0,112,144Zm-8,16v56H80V160Zm144-46.95L140.44,41.34a8.026,8.026,0,0,0-8.88,0L24,113.05V100.28L136,25.62l59.48,39.65a1.054,1.054,0,0,1,.11.07l31.93,21.28a.022.022,0,0,0,.02.02L248,100.28Z"/><path d="M128,152v32a8,8,0,0,0,8,8h64a8,8,0,0,0,8-8V152a8,8,0,0,0-8-8H136A8,8,0,0,0,128,152Zm16,8h48v16H144Z"/><path d="M136,128a24,24,0,1,0-24-24A24.027,24.027,0,0,0,136,128Zm0-32a8,8,0,1,1-8,8A8.009,8.009,0,0,1,136,96Z"/><path d="M500.44,337.34,480,323.72V280a8,8,0,0,0-8-8H440a8,8,0,0,0-8,8v11.72l-51.56-34.38a8.013,8.013,0,0,0-8.88,0l-120,80A8.033,8.033,0,0,0,248,344v32a8.009,8.009,0,0,0,12.44,6.66L280,369.61V464H264a8,8,0,0,0-8,8v24a8,8,0,0,0,8,8H488a8,8,0,0,0,8-8V472a8,8,0,0,0-8-8H472V369.61l19.56,13.05A8.026,8.026,0,0,0,496,384a8.015,8.015,0,0,0,8-8V344A8.033,8.033,0,0,0,500.44,337.34ZM448,288h16v25.05l-16-10.66Zm32,192v8H272v-8ZM352,392H312a8,8,0,0,0-8,8v64h-8V360a8.424,8.424,0,0,0-.07-1.01L376,305.62l80.07,53.37A8.424,8.424,0,0,0,456,360V464H360V400A8,8,0,0,0,352,392Zm-8,16v56H320V408Zm144-46.95L380.44,289.34a8.026,8.026,0,0,0-8.88,0L264,361.05V348.28l112-74.66,59.48,39.65a1.054,1.054,0,0,1,.11.07l31.93,21.28a.022.022,0,0,0,.02.02L488,348.28Z"/><path d="M368,400v32a8,8,0,0,0,8,8h64a8,8,0,0,0,8-8V400a8,8,0,0,0-8-8H376A8,8,0,0,0,368,400Zm16,8h48v16H384Z"/><path d="M352,352a24,24,0,1,0,24-24A24.027,24.027,0,0,0,352,352Zm32,0a8,8,0,1,1-8-8A8.009,8.009,0,0,1,384,352Z"/><path d="M189.657,362.343A8,8,0,0,0,176,368v16H160V280a8,8,0,0,0-8-8H120a8,8,0,0,0-8,8V424a8,8,0,0,0,8,8h56v16a8,8,0,0,0,13.657,5.657l40-40a8,8,0,0,0,0-11.314ZM192,428.687V424a8,8,0,0,0-8-8H128V288h16V392a8,8,0,0,0,8,8h32a8,8,0,0,0,8-8v-4.687L212.686,408Z"/><path d="M322.343,149.657A8,8,0,0,0,336,144V128h16V232a8,8,0,0,0,8,8h32a8,8,0,0,0,8-8V88a8,8,0,0,0-8-8H336V64a8,8,0,0,0-13.657-5.657l-40,40a8,8,0,0,0,0,11.314ZM320,83.313V88a8,8,0,0,0,8,8h56V224H368V120a8,8,0,0,0-8-8H328a8,8,0,0,0-8,8v4.687L299.314,104Z"/></g></svg>
