<svg height="512" viewBox="0 0 512 512" width="512" xmlns="http://www.w3.org/2000/svg"><g><path d="m176 408a32 32 0 1 0 32 32 32.036 32.036 0 0 0 -32-32zm0 48a16 16 0 1 1 16-16 16.019 16.019 0 0 1 -16 16z"/><path d="m432 416v-168a8 8 0 0 0 -8-8h-176a8 8 0 0 0 -8 8v168h-4.69a64.325 64.325 0 0 0 -35.31-35.31v-364.69a8 8 0 0 0 -8-8h-112a24 24 0 0 0 0 48h72v324.69a63.988 63.988 0 1 0 83.31 83.31h196.69a24 24 0 0 0 0-48zm-352-376a8 8 0 0 1 0-16h104v352h-16v-328a8 8 0 0 0 -8-8zm96 448a48 48 0 1 1 48-48 48.051 48.051 0 0 1 -48 48zm136-232h48v43.06l-20.42-10.22a8.049 8.049 0 0 0 -7.16 0l-20.42 10.22zm-56 0h40v56a8 8 0 0 0 11.58 7.16l28.42-14.22 28.42 14.22a8 8 0 0 0 11.58-7.16v-56h40v160h-160zm176 192h-192v-16h192a8 8 0 0 1 0 16z"/><path d="m400 360h-40a8 8 0 0 0 -8 8v32a8 8 0 0 0 8 8h40a8 8 0 0 0 8-8v-32a8 8 0 0 0 -8-8zm-8 32h-24v-16h24z"/></g></svg>