<svg height="512" viewBox="0 0 512 512" width="512" xmlns="http://www.w3.org/2000/svg"><g><path d="m424 128h-336a8 8 0 0 0 -8 8v240a8 8 0 0 0 8 8h336a8 8 0 0 0 8-8v-240a8 8 0 0 0 -8-8zm-8 240h-320v-224h320z"/><path d="m496 392h-40v-260a28.031 28.031 0 0 0 -28-28h-344a28.031 28.031 0 0 0 -28 28v260h-40a8 8 0 0 0 -8 8v28a28.031 28.031 0 0 0 28 28h440a28.031 28.031 0 0 0 28-28v-28a8 8 0 0 0 -8-8zm-424-260a12.01 12.01 0 0 1 12-12h344a12.01 12.01 0 0 1 12 12v260h-368zm204.46 276-3 8h-34.92l-3-8zm211.54 20a12.01 12.01 0 0 1 -12 12h-440a12.01 12.01 0 0 1 -12-12v-20h194.46l7.05 18.81a8.005 8.005 0 0 0 7.49 5.19h46a8.005 8.005 0 0 0 7.49-5.19l7.05-18.81h194.46z"/><path d="m244.24 225.22-64-40a7.964 7.964 0 0 0 -8.48 0l-64 40a7.987 7.987 0 0 0 -3.76 6.78v88a8 8 0 0 0 8 8h128a8 8 0 0 0 8-8v-88a7.987 7.987 0 0 0 -3.76-6.78zm-60.24 86.78h-16v-32h16zm48 0h-32v-40a8 8 0 0 0 -8-8h-32a8 8 0 0 0 -8 8v40h-32v-75.57l56-35 56 35z"/><path d="m264 248h136a8 8 0 0 0 8-8v-24a8 8 0 0 0 -8-8h-136a8 8 0 0 0 -8 8v24a8 8 0 0 0 8 8zm8-24h120v8h-120z"/><path d="m264 272h136a8 8 0 0 0 0-16h-136a8 8 0 0 0 0 16z"/><path d="m264 296h136a8 8 0 0 0 0-16h-136a8 8 0 0 0 0 16z"/><path d="m264 320h72a8 8 0 0 0 0-16h-72a8 8 0 0 0 0 16z"/></g></svg>