<svg width="360" height="722" viewBox="0 0 360 722" version="1.1" xmlns="http://www.w3.org/2000/svg" xmlns:xlink="http://www.w3.org/1999/xlink">
<title>flat</title>
<desc>Created using Figma</desc>
<g id="Canvas" transform="translate(-53 366)">
<g id="flat">
<g id="Subtract">
<use xlink:href="#path0_fill" transform="translate(53 -366)" fill="#1D2326"/>
</g>
<g id="Rectangle 2">
<use xlink:href="#path1_fill" transform="translate(145 -343)" fill="#1D2326"/>
</g>
<g id="Group">
<g id="Rectangle 3">
<use xlink:href="#path2_fill" transform="translate(200 -339)" fill="#171717"/>
</g>
<g id="Rectangle 4">
<use xlink:href="#path3_fill" transform="translate(255 -342)" fill="#0E0F11"/>
</g>
</g>
</g>
</g>
<defs>
<path id="path0_fill" fill-rule="evenodd" d="M 57 0C 25.5198 0 0 25.5198 0 57L 0 665C 0 696.48 25.5198 722 57 722L 303 722C 334.48 722 360 696.48 360 665L 360 57C 360 25.5198 334.48 0 303 0L 57 0ZM 52 23C 34.8792 23 21 36.8792 21 54L 21 668C 21 685.121 34.8792 699 52 699L 309 699C 326.121 699 340 685.121 340 668L 340 54C 340 36.8792 326.121 23 309 23L 52 23Z"/>
<path id="path1_fill" d="M 0 0L 176 0L 176 5C 176 16.0457 167.046 25 156 25L 20 25C 8.95431 25 0 16.0457 0 5L 0 0Z"/>
<path id="path2_fill" d="M 0 3C 0 1.34315 1.34315 0 3 0L 41 0C 42.6569 0 44 1.34315 44 3L 44 3C 44 4.65685 42.6569 6 41 6L 3 6C 1.34315 6 0 4.65685 0 3L 0 3Z"/>
<path id="path3_fill" d="M 0 5.5C 0 2.46243 2.46243 0 5.5 0L 5.5 0C 8.53757 0 11 2.46243 11 5.5L 11 5.5C 11 8.53757 8.53757 11 5.5 11L 5.5 11C 2.46243 11 0 8.53757 0 5.5L 0 5.5Z"/>
</defs>
</svg>
